<svg xmlns="http://www.w3.org/2000/svg" xmlns:xlink="http://www.w3.org/1999/xlink" width="1080" zoomAndPan="magnify" viewBox="0 0 810 809.999993" height="1080" preserveAspectRatio="xMidYMid meet" version="1.0"><defs><clipPath id="394a703b6f"><path d="M 8.097656 605 L 194 605 L 194 778.863281 L 8.097656 778.863281 Z M 8.097656 605 " clip-rule="nonzero"/></clipPath><clipPath id="3c1ef8a5ff"><path d="M 684 52 L 809.847656 52 L 809.847656 170 L 684 170 Z M 684 52 " clip-rule="nonzero"/></clipPath><clipPath id="cecc70a7cb"><path d="M 46 31.113281 L 173 31.113281 L 173 149 L 46 149 Z M 46 31.113281 " clip-rule="nonzero"/></clipPath></defs><path fill="#34524f" d="M 566.214844 660.480469 C 525.863281 686.335938 479.421875 703.492188 429.546875 709.296875 C 445.878906 705.066406 461.835938 698.058594 477.191406 688.308594 C 485.167969 683.246094 492.917969 677.496094 500.382812 671.09375 C 522.605469 668.402344 544.59375 664.859375 566.214844 660.480469 Z M 566.214844 660.480469 " fill-opacity="1" fill-rule="nonzero"/><path fill="#000000" d="M 429.71875 710.726562 L 429.203125 707.925781 C 445.363281 703.75 461.261719 696.742188 476.449219 687.105469 C 484.339844 682.101562 492.089844 676.355469 499.46875 670.035156 L 499.867188 669.691406 L 500.328125 669.691406 C 522.375 667.003906 544.453125 663.457031 565.929688 659.109375 L 573.421875 657.59375 L 566.988281 661.710938 C 546.566406 674.808594 524.664062 685.589844 501.929688 693.796875 C 478.648438 702.148438 454.34375 707.867188 429.71875 710.726562 Z M 501.011719 672.464844 C 493.605469 678.785156 485.855469 684.503906 477.992188 689.507812 C 467.695312 696.027344 457.117188 701.375 446.304688 705.464844 C 486.257812 698.6875 524.035156 684.589844 558.863281 663.398438 C 539.820312 667.058594 520.402344 670.121094 501.011719 672.464844 Z M 501.011719 672.464844 " fill-opacity="1" fill-rule="nonzero"/><path fill="#ffae85" d="M 495.808594 671.636719 C 469.125 693.710938 439.527344 707.011719 408.644531 710.527344 C 417.910156 706.46875 426.890625 698.945312 435.496094 687.992188 C 438.355469 684.359375 441.160156 680.386719 443.902344 676.066406 C 448.25 675.839844 452.597656 675.554688 456.945312 675.238281 C 469.984375 674.351562 482.9375 673.152344 495.808594 671.636719 Z M 495.808594 671.636719 " fill-opacity="1" fill-rule="nonzero"/><path fill="#000000" d="M 399.433594 713.015625 L 408.101562 709.210938 C 417.109375 705.265625 425.972656 697.832031 434.410156 687.105469 C 437.210938 683.53125 440.015625 679.558594 442.730469 675.296875 L 443.132812 674.667969 L 443.875 674.636719 C 448.136719 674.410156 452.539062 674.125 456.886719 673.808594 C 469.757812 672.894531 482.796875 671.691406 495.664062 670.207031 L 500.46875 669.664062 L 496.75 672.75 C 483.339844 683.847656 469.097656 692.796875 454.429688 699.375 C 439.671875 705.980469 424.34375 710.214844 408.84375 711.957031 Z M 444.734375 677.46875 C 442.101562 681.585938 439.386719 685.417969 436.640625 688.90625 C 430.121094 697.171875 423.34375 703.578125 416.363281 708.011719 C 442.644531 703.578125 467.726562 692.023438 491.089844 673.609375 C 479.765625 674.867188 468.324219 675.894531 457.058594 676.667969 C 452.941406 676.984375 448.792969 677.242188 444.734375 677.46875 Z M 444.734375 677.46875 " fill-opacity="1" fill-rule="nonzero"/><path fill="#34524f" d="M 440.730469 676.269531 C 438.355469 679.898438 435.953125 683.304688 433.496094 686.421875 C 420.855469 702.464844 407.5 710.898438 393.800781 711.441406 L 393.800781 677.46875 L 394.203125 677.46875 C 409.757812 677.46875 425.289062 677.070312 440.730469 676.269531 Z M 440.730469 676.269531 " fill-opacity="1" fill-rule="nonzero"/><path fill="#000000" d="M 392.371094 712.929688 L 392.371094 676.039062 L 394.203125 676.039062 C 409.703125 676.039062 425.34375 675.640625 440.644531 674.839844 L 443.359375 674.839844 L 441.929688 677.039062 C 439.558594 680.699219 437.097656 684.160156 434.609375 687.308594 C 421.683594 703.691406 407.984375 712.300781 393.859375 712.871094 Z M 395.230469 678.898438 L 395.230469 709.925781 C 407.957031 708.839844 420.453125 700.632812 432.378906 685.535156 C 434.265625 683.132812 436.152344 680.558594 437.984375 677.839844 C 423.855469 678.527344 409.5 678.871094 395.230469 678.898438 Z M 395.230469 678.898438 " fill-opacity="1" fill-rule="nonzero"/><path fill="#34524f" d="M 391.199219 677.46875 L 391.199219 711.472656 C 377.5 710.898438 364.175781 702.492188 351.507812 686.449219 C 349.019531 683.273438 346.558594 679.84375 344.15625 676.125 C 359.855469 676.953125 375.554688 677.410156 391.199219 677.46875 Z M 391.199219 677.46875 " fill-opacity="1" fill-rule="nonzero"/><path fill="#000000" d="M 392.628906 712.929688 L 391.140625 712.871094 C 377.015625 712.273438 363.316406 703.691406 350.390625 687.308594 C 347.875 684.105469 345.359375 680.585938 342.957031 676.867188 L 341.527344 674.667969 L 344.242188 674.667969 C 359.828125 675.523438 375.613281 675.980469 391.199219 676.039062 L 392.628906 676.039062 Z M 346.929688 677.667969 C 348.789062 680.441406 350.707031 683.074219 352.648438 685.535156 C 364.546875 700.632812 377.042969 708.839844 389.796875 709.925781 L 389.796875 678.898438 C 375.554688 678.8125 361.144531 678.414062 346.929688 677.667969 Z M 346.929688 677.667969 " fill-opacity="1" fill-rule="nonzero"/><path fill="#ffe9d9" d="M 376.328125 710.527344 C 345.328125 707.011719 315.617188 693.625 288.847656 671.378906 C 296.800781 672.292969 304.808594 673.121094 312.871094 673.835938 C 322.222656 674.667969 331.601562 675.351562 340.953125 675.894531 C 343.726562 680.273438 346.558594 684.332031 349.476562 687.992188 C 358.113281 698.945312 367.089844 706.496094 376.328125 710.527344 Z M 376.328125 710.527344 " fill-opacity="1" fill-rule="nonzero"/><path fill="#000000" d="M 385.59375 713.015625 L 376.1875 711.957031 C 360.65625 710.183594 345.242188 705.921875 330.429688 699.289062 C 315.703125 692.683594 301.402344 683.675781 287.964844 672.492188 L 284.273438 669.40625 L 289.050781 669.949219 C 297 670.863281 305.0625 671.691406 313.042969 672.40625 C 322.335938 673.238281 331.773438 673.921875 341.066406 674.464844 L 341.8125 674.496094 L 342.210938 675.125 C 344.957031 679.472656 347.789062 683.503906 350.621094 687.105469 C 359.054688 697.832031 367.921875 705.265625 376.929688 709.210938 Z M 293.566406 673.351562 C 317.019531 691.910156 342.210938 703.550781 368.605469 708.011719 C 361.660156 703.578125 354.851562 697.171875 348.332031 688.90625 C 345.558594 685.390625 342.8125 681.5 340.125 677.296875 C 331.003906 676.753906 321.792969 676.066406 312.726562 675.265625 C 306.378906 674.695312 299.945312 674.066406 293.566406 673.351562 Z M 293.566406 673.351562 " fill-opacity="1" fill-rule="nonzero"/><path fill="#34524f" d="M 355.453125 709.296875 C 305.4375 703.492188 258.878906 686.25 218.441406 660.253906 C 239.832031 664.570312 261.824219 668.117188 284.300781 670.835938 C 291.882812 677.328125 299.714844 683.160156 307.808594 688.308594 C 323.195312 698.058594 339.125 705.09375 355.453125 709.296875 Z M 355.453125 709.296875 " fill-opacity="1" fill-rule="nonzero"/><path fill="#000000" d="M 355.28125 710.726562 C 330.574219 707.867188 306.207031 702.121094 282.871094 693.683594 C 260.082031 685.449219 238.117188 674.609375 217.671875 661.453125 L 211.265625 657.335938 L 218.730469 658.851562 C 239.976562 663.140625 262.082031 666.714844 284.386719 669.40625 L 284.847656 669.40625 L 285.246094 669.746094 C 292.738281 676.183594 300.574219 682.015625 308.582031 687.105469 C 323.765625 696.742188 339.667969 703.75 355.824219 707.925781 Z M 225.765625 663.140625 C 260.710938 684.445312 298.601562 698.660156 338.695312 705.464844 C 327.914062 701.375 317.304688 696.027344 307.007812 689.507812 C 299 684.417969 291.164062 678.613281 283.671875 672.207031 C 264.085938 669.804688 244.636719 666.773438 225.765625 663.140625 Z M 225.765625 663.140625 " fill-opacity="1" fill-rule="nonzero"/><path fill="#ffe9d9" d="M 280.84375 667.804688 C 257.476562 664.886719 234.742188 661.113281 212.667969 656.449219 C 171.742188 628.910156 137.457031 592.304688 112.632812 549.523438 C 143.777344 557.21875 176.546875 563.453125 211.179688 568.285156 C 219.101562 586.128906 228.222656 602.800781 238.488281 618.1875 C 251.300781 637.460938 265.484375 654.046875 280.84375 667.804688 Z M 280.84375 667.804688 " fill-opacity="1" fill-rule="nonzero"/><path fill="#000000" d="M 285.1875 669.804688 L 280.640625 669.234375 C 257.363281 666.316406 234.457031 662.511719 212.496094 657.910156 L 212.207031 657.910156 L 211.835938 657.652344 C 191.363281 643.867188 172.429688 627.738281 155.527344 609.695312 C 138.597656 591.621094 123.757812 571.628906 111.347656 550.269531 L 109.660156 547.351562 L 112.917969 548.152344 C 143.777344 555.757812 176.863281 562.078125 211.207031 566.882812 L 212.039062 566.882812 L 212.410156 567.742188 C 220.273438 585.472656 229.425781 602.171875 239.605469 617.445312 C 252.300781 636.488281 266.488281 653.074219 281.730469 666.773438 Z M 213.238281 655.105469 C 233.65625 659.394531 254.933594 663 276.550781 665.800781 C 262.398438 652.589844 249.214844 636.859375 237.289062 618.988281 C 227.164062 603.800781 218.042969 587.1875 210.179688 569.601562 C 177.175781 564.96875 145.378906 558.933594 115.578125 551.726562 C 139.945312 592.734375 173.632812 628.425781 213.238281 655.105469 Z M 213.238281 655.105469 " fill-opacity="1" fill-rule="nonzero"/><path fill="#34524f" d="M 339.296875 673.207031 C 330.574219 672.664062 321.851562 672.035156 313.101562 671.234375 C 303.71875 670.40625 294.453125 669.433594 285.304688 668.347656 C 269.175781 654.332031 254.191406 637.0625 240.632812 616.757812 C 230.710938 601.859375 221.847656 585.785156 214.152344 568.714844 C 242.609375 572.601562 272.292969 575.578125 303.347656 577.636719 C 306.78125 591.878906 310.582031 605.316406 314.789062 617.902344 C 322.109375 639.863281 330.34375 658.394531 339.296875 673.207031 Z M 339.296875 673.207031 " fill-opacity="1" fill-rule="nonzero"/><path fill="#000000" d="M 341.953125 674.808594 L 339.238281 674.636719 C 330.457031 674.09375 321.621094 673.4375 313.015625 672.664062 C 303.777344 671.835938 294.425781 670.863281 285.246094 669.777344 L 284.789062 669.777344 L 284.386719 669.433594 C 268.089844 655.277344 252.960938 637.804688 239.460938 617.558594 C 229.566406 602.714844 220.617188 586.472656 212.867188 569.3125 L 211.808594 566.96875 L 214.355469 567.3125 C 242.578125 571.171875 272.550781 574.175781 303.460938 576.207031 L 304.519531 576.261719 L 304.777344 577.292969 C 308.179688 591.449219 312.011719 604.976562 316.1875 617.445312 C 323.453125 639.234375 331.660156 657.765625 340.554688 672.464844 Z M 285.902344 666.972656 C 294.941406 668.0625 304.148438 669.003906 313.242188 669.832031 C 320.964844 670.519531 328.828125 671.121094 336.691406 671.636719 C 328.199219 657.136719 320.390625 639.234375 313.441406 618.359375 C 309.355469 606.089844 305.578125 592.851562 302.234375 578.980469 C 272.578125 577.007812 243.78125 574.148438 216.554688 570.488281 C 223.992188 586.644531 232.484375 601.945312 241.835938 615.984375 C 255.105469 635.890625 269.917969 653.046875 285.902344 666.972656 Z M 285.902344 666.972656 " fill-opacity="1" fill-rule="nonzero"/><path fill="#ff2ca5" d="M 391.199219 580.667969 L 391.199219 674.894531 C 375.042969 674.839844 358.769531 674.324219 342.46875 673.410156 C 333.234375 658.507812 324.796875 639.636719 317.273438 617.101562 C 313.15625 604.773438 309.441406 591.648438 306.09375 577.835938 C 308.582031 578.007812 311.097656 578.152344 313.613281 578.292969 C 339.636719 579.808594 365.519531 580.609375 391.199219 580.667969 Z M 391.199219 580.667969 " fill-opacity="1" fill-rule="nonzero"/><path fill="#000000" d="M 392.628906 676.355469 L 391.199219 676.355469 C 375.042969 676.296875 358.625 675.78125 342.382812 674.867188 L 341.640625 674.839844 L 341.238281 674.210938 C 331.945312 659.222656 323.421875 640.179688 315.902344 617.585938 C 311.8125 605.347656 308.039062 592.078125 304.691406 578.207031 L 304.234375 576.320312 L 306.179688 576.433594 C 308.78125 576.605469 311.328125 576.75 313.699219 576.890625 C 339.550781 578.410156 365.632812 579.238281 391.226562 579.292969 L 392.65625 579.292969 L 392.65625 676.355469 Z M 343.296875 672.007812 C 358.769531 672.894531 374.382812 673.378906 389.769531 673.464844 L 389.769531 582.097656 C 364.605469 582.011719 338.953125 581.210938 313.5 579.695312 C 311.699219 579.582031 309.839844 579.464844 307.925781 579.351562 C 311.15625 592.476562 314.757812 605.003906 318.621094 616.613281 C 325.96875 638.691406 334.261719 657.335938 343.296875 672.007812 Z M 343.296875 672.007812 " fill-opacity="1" fill-rule="nonzero"/><path fill="#ffae85" d="M 478.878906 578.007812 C 475.53125 591.761719 471.816406 604.832031 467.726562 617.101562 C 460.175781 639.777344 451.683594 658.710938 442.386719 673.636719 C 426.289062 674.496094 410.074219 674.925781 393.800781 674.925781 L 393.800781 580.695312 C 394.117188 580.695312 394.429688 580.695312 394.773438 580.695312 C 423.085938 580.667969 451.140625 579.78125 478.878906 578.007812 Z M 478.878906 578.007812 " fill-opacity="1" fill-rule="nonzero"/><path fill="#000000" d="M 394.574219 676.355469 C 394.316406 676.355469 394.058594 676.355469 393.800781 676.355469 L 392.371094 676.355469 L 392.371094 579.238281 L 393.800781 579.238281 C 394.117188 579.238281 394.429688 579.238281 394.746094 579.238281 C 422.914062 579.238281 451.195312 578.351562 478.765625 576.578125 L 480.707031 576.464844 L 480.25 578.351562 C 476.90625 592.164062 473.128906 605.375 469.070312 617.558594 C 461.492188 640.292969 452.914062 659.394531 443.589844 674.410156 L 443.1875 675.039062 L 442.445312 675.066406 C 426.6875 675.925781 410.589844 676.355469 394.574219 676.355469 Z M 395.230469 582.097656 L 395.230469 673.464844 C 410.703125 673.464844 426.289062 673.035156 441.585938 672.234375 C 450.652344 657.507812 459.003906 638.804688 466.410156 616.613281 C 470.269531 605.0625 473.84375 592.59375 477.046875 579.550781 C 450.136719 581.238281 422.65625 582.097656 395.230469 582.097656 Z M 395.230469 582.097656 " fill-opacity="1" fill-rule="nonzero"/><path fill="#ffe9d9" d="M 570.847656 568.683594 C 563.15625 585.757812 554.289062 601.859375 544.367188 616.757812 C 530.726562 637.203125 515.597656 654.589844 499.324219 668.660156 C 481.539062 670.804688 463.609375 672.40625 445.5625 673.4375 C 454.597656 658.566406 462.863281 639.976562 470.214844 617.902344 C 474.390625 605.375 478.191406 591.992188 481.59375 577.835938 C 511.738281 575.835938 541.535156 572.773438 570.847656 568.683594 Z M 570.847656 568.683594 " fill-opacity="1" fill-rule="nonzero"/><path fill="#000000" d="M 442.933594 675.039062 L 444.332031 672.722656 C 453.285156 657.964844 461.546875 639.378906 468.839844 617.472656 C 472.988281 605.03125 476.820312 591.589844 480.195312 577.523438 L 480.453125 576.433594 L 481.539062 576.433594 C 511.535156 574.460938 541.507812 571.375 570.648438 567.3125 L 573.222656 566.941406 L 572.164062 569.3125 C 564.414062 586.5 555.460938 602.746094 545.566406 617.613281 C 531.957031 638.003906 516.742188 655.5625 500.269531 669.804688 L 499.867188 670.148438 L 499.410156 670.148438 C 481.625 672.292969 463.523438 673.894531 445.621094 674.925781 Z M 482.738281 579.179688 C 479.394531 592.964844 475.648438 606.148438 471.558594 618.359375 C 464.578125 639.347656 456.714844 657.335938 448.164062 671.863281 C 465.007812 670.835938 481.996094 669.320312 498.726562 667.289062 C 514.855469 653.277344 529.808594 636.003906 543.164062 615.957031 C 552.515625 601.914062 561.039062 586.617188 568.472656 570.429688 C 540.417969 574.320312 511.566406 577.265625 482.738281 579.179688 Z M 482.738281 579.179688 " fill-opacity="1" fill-rule="nonzero"/><path fill="#ff2ca5" d="M 672.308594 549.667969 C 647.460938 592.476562 613.085938 629.109375 572.105469 656.621094 C 549.601562 661.367188 526.835938 665.199219 503.84375 668.117188 C 519.34375 654.277344 533.640625 637.605469 546.539062 618.214844 C 556.804688 602.832031 565.929688 586.128906 573.878906 568.257812 C 582.316406 567.054688 590.722656 565.769531 599.101562 564.394531 C 624.753906 560.191406 649.089844 555.300781 672.308594 549.667969 Z M 672.308594 549.667969 " fill-opacity="1" fill-rule="nonzero"/><path fill="#000000" d="M 499.441406 670.121094 L 502.871094 667.058594 C 518.257812 653.332031 532.554688 636.632812 545.339844 617.445312 C 555.519531 602.171875 564.671875 585.441406 572.5625 567.714844 L 572.933594 566.855469 L 573.765625 566.855469 C 582.171875 565.652344 590.609375 564.367188 598.84375 563.023438 C 624.410156 558.820312 649.03125 553.871094 671.996094 548.296875 L 675.257812 547.496094 L 673.570312 550.382812 C 661.15625 571.773438 646.257812 591.761719 629.300781 609.867188 C 612.371094 627.910156 593.410156 644.039062 572.90625 657.824219 L 572.675781 657.964844 L 572.421875 658.023438 C 550 662.769531 526.980469 666.632812 504.015625 669.546875 Z M 574.851562 569.570312 C 566.988281 587.1875 557.863281 603.800781 547.710938 619.015625 C 535.730469 637.003906 522.402344 652.847656 508.132812 666.117188 C 529.4375 663.3125 550.742188 659.683594 571.535156 655.277344 C 611.199219 628.597656 644.972656 592.878906 669.394531 551.839844 C 647.316406 557.101562 623.753906 561.792969 599.332031 565.824219 C 591.265625 567.140625 583.03125 568.398438 574.851562 569.570312 Z M 574.851562 569.570312 " fill-opacity="1" fill-rule="nonzero"/><path fill="#ffe9d9" d="M 494.808594 481.949219 C 491.433594 515.292969 486.285156 546.78125 479.507812 575.375 C 451.253906 577.207031 422.65625 578.121094 393.800781 578.09375 L 393.800781 483.867188 L 394.746094 483.867188 C 428.488281 483.835938 461.890625 483.207031 494.808594 481.949219 Z M 494.808594 481.949219 " fill-opacity="1" fill-rule="nonzero"/><path fill="#000000" d="M 394.859375 579.496094 C 394.515625 579.496094 394.144531 579.496094 393.800781 579.496094 L 392.371094 579.496094 L 392.371094 482.40625 L 394.746094 482.40625 C 428.320312 482.40625 461.949219 481.777344 494.75 480.519531 L 496.378906 480.519531 L 496.238281 482.09375 C 492.863281 515.609375 487.714844 547.09375 480.910156 575.691406 L 480.652344 576.722656 L 479.59375 576.777344 C 451.796875 578.578125 423.285156 579.496094 394.859375 579.496094 Z M 395.230469 485.265625 L 395.230469 576.636719 C 423.140625 576.636719 451.082031 575.75 478.363281 574.003906 C 484.914062 546.265625 489.886719 515.808594 493.207031 483.4375 C 461.0625 484.636719 428.117188 485.265625 395.230469 485.265625 Z M 395.230469 485.265625 " fill-opacity="1" fill-rule="nonzero"/><path fill="#ffae85" d="M 706.828125 463.761719 C 699.707031 493.101562 688.609375 520.925781 674.082031 546.578125 C 650.203125 552.441406 625.152344 557.503906 598.644531 561.878906 C 590.835938 563.164062 582.972656 564.367188 575.078125 565.511719 C 582.085938 549.410156 588.121094 532.367188 593.152344 514.492188 C 596.757812 501.738281 599.789062 488.726562 602.246094 475.488281 C 639.765625 472.3125 674.398438 468.421875 706.828125 463.761719 Z M 706.828125 463.761719 " fill-opacity="1" fill-rule="nonzero"/><path fill="#000000" d="M 572.761719 567.253906 L 573.792969 564.910156 C 580.769531 548.867188 586.832031 531.765625 591.808594 514.0625 C 595.382812 501.425781 598.414062 488.328125 600.875 475.171875 L 601.101562 474 L 602.246094 474 C 640.023438 470.824219 674.167969 467.023438 706.65625 462.332031 L 708.742188 462.015625 L 708.257812 464.078125 C 701.222656 493.160156 690.15625 521.128906 675.371094 547.238281 L 675.054688 547.78125 L 674.457031 547.921875 C 650.71875 553.757812 625.324219 558.90625 598.902344 563.222656 C 591.207031 564.480469 583.257812 565.710938 575.308594 566.855469 Z M 603.476562 476.773438 C 601.046875 489.640625 598.042969 502.453125 594.554688 514.835938 C 589.777344 531.792969 584.003906 548.238281 577.425781 563.679688 C 584.515625 562.652344 591.550781 561.5625 598.414062 560.421875 C 624.523438 556.132812 649.660156 551.039062 673.140625 545.292969 C 687.296875 520.183594 697.992188 493.332031 704.941406 465.449219 C 673.3125 469.996094 640.082031 473.683594 603.476562 476.773438 Z M 603.476562 476.773438 " fill-opacity="1" fill-rule="nonzero"/><path fill="#ffae85" d="M 599.617188 475.660156 C 593.640625 507.660156 584.375 538.058594 572.105469 565.910156 C 542.59375 570.058594 512.59375 573.175781 482.222656 575.207031 C 486.683594 556.246094 490.460938 535.882812 493.519531 514.292969 C 495.007812 503.65625 496.324219 492.84375 497.4375 481.863281 C 531.753906 480.519531 565.527344 478.488281 598.671875 475.742188 C 598.957031 475.714844 599.300781 475.6875 599.617188 475.660156 Z M 599.617188 475.660156 " fill-opacity="1" fill-rule="nonzero"/><path fill="#000000" d="M 480.367188 576.75 L 480.824219 574.863281 C 485.253906 555.988281 489.058594 535.539062 492.089844 514.0625 C 493.578125 503.453125 494.894531 492.558594 496.007812 481.691406 L 496.121094 480.460938 L 497.351562 480.40625 C 531.527344 479.0625 565.585938 477.003906 598.53125 474.3125 C 598.871094 474.285156 599.1875 474.257812 599.5 474.226562 L 601.390625 474.058594 L 601.046875 475.914062 C 595.039062 508.085938 585.746094 538.542969 573.421875 566.484375 L 573.050781 567.339844 L 572.21875 567.339844 C 542.820312 571.488281 512.59375 574.605469 482.339844 576.636719 Z M 498.695312 483.238281 C 497.636719 493.730469 496.351562 504.226562 494.894531 514.492188 C 491.949219 535.3125 488.316406 555.214844 484.027344 573.660156 C 513.339844 571.660156 542.59375 568.628906 571.105469 564.625 C 582.945312 537.628906 591.921875 508.257812 597.871094 477.257812 C 565.558594 479.863281 532.210938 481.890625 498.695312 483.238281 Z M 498.695312 483.238281 " fill-opacity="1" fill-rule="nonzero"/><path fill="#34524f" d="M 391.199219 483.835938 L 391.199219 578.066406 C 365.574219 578.007812 339.722656 577.207031 313.757812 575.664062 C 310.984375 575.492188 308.210938 575.320312 305.464844 575.148438 C 298.6875 546.578125 293.566406 515.121094 290.195312 481.835938 C 297.859375 482.121094 305.636719 482.378906 313.527344 482.605469 C 339.582031 483.40625 365.492188 483.808594 391.199219 483.835938 Z M 391.199219 483.835938 " fill-opacity="1" fill-rule="nonzero"/><path fill="#000000" d="M 392.628906 579.496094 L 391.199219 579.496094 C 365.660156 579.4375 339.582031 578.636719 313.671875 577.09375 C 310.871094 576.921875 308.09375 576.75 305.351562 576.578125 L 304.292969 576.519531 L 304.035156 575.492188 C 297.257812 546.894531 292.109375 515.4375 288.734375 482.007812 L 288.5625 480.433594 L 290.195312 480.433594 C 297.828125 480.71875 305.664062 480.976562 313.5 481.207031 C 339.496094 481.976562 365.632812 482.378906 391.140625 482.40625 L 392.570312 482.40625 L 392.570312 579.496094 Z M 306.578125 573.804688 C 308.953125 573.945312 311.382812 574.117188 313.816406 574.261719 C 339.179688 575.75 364.71875 576.550781 389.742188 576.636719 L 389.742188 485.265625 C 364.660156 485.210938 338.980469 484.808594 313.441406 484.066406 C 306.179688 483.867188 298.886719 483.609375 291.738281 483.351562 C 295.082031 515.664062 300.058594 546.09375 306.578125 573.804688 Z M 306.578125 573.804688 " fill-opacity="1" fill-rule="nonzero"/><path fill="#ff2ca5" d="M 302.746094 575.003906 C 271.460938 572.917969 241.550781 569.914062 212.921875 565.941406 C 200.65625 538.113281 191.390625 507.773438 185.414062 475.773438 C 217.554688 478.402344 251.472656 480.375 287.589844 481.777344 C 288.707031 492.789062 289.992188 503.625 291.507812 514.292969 C 294.539062 535.769531 298.285156 556.074219 302.746094 575.003906 Z M 302.746094 575.003906 " fill-opacity="1" fill-rule="nonzero"/><path fill="#000000" d="M 304.550781 576.433594 L 302.632812 576.433594 C 271.433594 574.375 241.234375 571.316406 212.808594 567.371094 L 211.980469 567.371094 L 211.609375 566.511719 C 199.3125 538.601562 190.015625 508.171875 183.984375 476.03125 L 183.640625 474.199219 L 185.5 474.34375 C 217.757812 476.972656 251.160156 478.945312 287.621094 480.320312 L 288.847656 480.375 L 288.964844 481.605469 C 290.050781 492.53125 291.367188 503.453125 292.882812 514.0625 C 295.882812 535.425781 299.660156 555.789062 304.09375 574.660156 Z M 213.894531 564.625 C 241.464844 568.429688 270.71875 571.402344 300.890625 573.433594 C 296.628906 555.015625 292.996094 535.199219 290.078125 514.464844 C 288.648438 504.226562 287.363281 493.675781 286.277344 483.121094 C 250.957031 481.75 218.5 479.863281 187.128906 477.316406 C 193.078125 508.289062 202.085938 537.65625 213.894531 564.625 Z M 213.894531 564.625 " fill-opacity="1" fill-rule="nonzero"/><path fill="#ffae85" d="M 209.949219 565.511719 C 175.117188 560.59375 142.144531 554.242188 110.859375 546.40625 C 96.359375 520.785156 85.265625 492.988281 78.171875 463.648438 C 111.175781 468.507812 145.804688 472.457031 182.78125 475.542969 C 185.242188 488.726562 188.273438 501.710938 191.875 514.4375 C 196.878906 532.339844 202.914062 549.382812 209.949219 565.511719 Z M 209.949219 565.511719 " fill-opacity="1" fill-rule="nonzero"/><path fill="#000000" d="M 212.265625 567.285156 L 209.75 566.941406 C 175.0625 562.050781 141.6875 555.617188 110.515625 547.808594 L 109.917969 547.667969 L 109.601562 547.121094 C 94.84375 521.011719 83.777344 493.046875 76.773438 463.992188 L 76.285156 461.929688 L 78.375 462.246094 C 111.632812 467.164062 145.804688 471.054688 182.867188 474.140625 L 183.953125 474.226562 L 184.15625 475.285156 C 186.613281 488.382812 189.644531 501.425781 193.191406 514.0625 C 198.195312 531.792969 204.257812 548.925781 211.238281 564.9375 Z M 111.773438 545.179688 C 141.917969 552.699219 174.144531 558.933594 207.605469 563.738281 C 201 548.265625 195.222656 531.824219 190.445312 514.835938 C 186.957031 502.484375 183.953125 489.699219 181.550781 476.886719 C 145.632812 473.886719 112.375 470.109375 80.0625 465.390625 C 86.980469 493.246094 97.648438 520.070312 111.773438 545.179688 Z M 111.773438 545.179688 " fill-opacity="1" fill-rule="nonzero"/><path fill="#ffe9d9" d="M 182.265625 472.914062 C 145.234375 469.824219 110.546875 465.847656 77.515625 460.960938 C 72.023438 437.335938 69.109375 412.746094 69.109375 387.492188 C 69.109375 387.351562 69.109375 387.179688 69.109375 387.035156 L 174.746094 387.035156 L 174.746094 387.492188 C 174.746094 416.632812 177.261719 445.230469 182.265625 472.914062 Z M 182.265625 472.914062 " fill-opacity="1" fill-rule="nonzero"/><path fill="#000000" d="M 184.011719 474.484375 L 182.152344 474.34375 C 144.949219 471.226562 110.660156 467.308594 77.316406 462.359375 L 76.34375 462.21875 L 76.113281 461.273438 C 70.507812 437.222656 67.679688 412.402344 67.679688 387.492188 C 67.679688 387.320312 67.679688 387.148438 67.679688 387.007812 L 67.707031 385.605469 L 176.175781 385.605469 L 176.175781 387.492188 C 176.175781 416.460938 178.691406 445.144531 183.667969 472.65625 Z M 78.6875 459.671875 C 111.117188 464.476562 144.460938 468.28125 180.550781 471.339844 C 175.804688 444.515625 173.402344 416.632812 173.34375 388.464844 L 70.539062 388.464844 C 70.59375 412.457031 73.339844 436.421875 78.6875 459.671875 Z M 78.6875 459.671875 " fill-opacity="1" fill-rule="nonzero"/><path fill="#ffae85" d="M 287.332031 479.148438 C 251.128906 477.746094 217.128906 475.773438 184.925781 473.113281 C 179.921875 445.546875 177.347656 416.804688 177.347656 387.464844 L 177.347656 387.007812 L 282.988281 387.007812 L 282.988281 387.464844 C 282.957031 418.835938 284.445312 449.550781 287.332031 479.148438 Z M 287.332031 479.148438 " fill-opacity="1" fill-rule="nonzero"/><path fill="#000000" d="M 288.90625 480.632812 L 287.277344 480.578125 C 250.613281 479.175781 217.097656 477.203125 184.8125 474.542969 L 183.726562 474.457031 L 183.527344 473.371094 C 178.492188 445.546875 175.917969 416.660156 175.917969 387.464844 L 175.917969 385.578125 L 284.417969 385.578125 L 284.417969 387.464844 C 284.417969 418.691406 285.875 449.492188 288.765625 479.003906 Z M 186.128906 471.796875 C 217.554688 474.371094 250.1875 476.289062 285.761719 477.660156 C 282.988281 448.863281 281.585938 418.863281 281.558594 388.4375 L 178.777344 388.4375 C 178.835938 416.746094 181.296875 444.773438 186.128906 471.796875 Z M 186.128906 471.796875 " fill-opacity="1" fill-rule="nonzero"/><path fill="#ffe9d9" d="M 391.199219 387.007812 L 391.199219 481.234375 C 365.519531 481.207031 339.636719 480.804688 313.585938 480.035156 C 305.578125 479.804688 297.714844 479.519531 289.9375 479.234375 C 287.078125 449.804688 285.589844 418.976562 285.589844 387.464844 L 285.589844 387.007812 Z M 391.199219 387.007812 " fill-opacity="1" fill-rule="nonzero"/><path fill="#000000" d="M 392.628906 482.664062 L 391.199219 482.664062 C 365.71875 482.636719 339.582031 482.234375 313.527344 481.464844 C 305.464844 481.234375 297.515625 480.949219 289.878906 480.664062 L 288.621094 480.664062 L 288.476562 479.375 C 285.589844 449.691406 284.101562 418.777344 284.101562 387.464844 L 284.101562 385.578125 L 392.601562 385.578125 L 392.601562 482.664062 Z M 291.222656 477.859375 C 298.457031 478.117188 305.980469 478.375 313.613281 478.605469 C 339.152344 479.347656 364.746094 479.746094 389.769531 479.804688 L 389.769531 388.4375 L 286.992188 388.4375 C 287.019531 418.894531 288.449219 448.976562 291.222656 477.859375 Z M 291.222656 477.859375 " fill-opacity="1" fill-rule="nonzero"/><path fill="#ff2ca5" d="M 499.441406 387.007812 L 499.441406 387.464844 C 499.441406 419.007812 497.953125 449.863281 495.066406 479.320312 C 461.75 480.605469 427.945312 481.234375 393.800781 481.234375 L 393.800781 387.007812 Z M 499.441406 387.007812 " fill-opacity="1" fill-rule="nonzero"/><path fill="#000000" d="M 394.6875 482.664062 C 394.402344 482.664062 394.085938 482.664062 393.800781 482.664062 L 392.371094 482.664062 L 392.371094 385.578125 L 500.871094 385.578125 L 500.871094 387.464844 C 500.871094 418.808594 499.410156 449.75 496.496094 479.460938 L 496.378906 480.75 L 495.121094 480.75 C 462.207031 482.035156 428.433594 482.664062 394.6875 482.664062 Z M 395.230469 388.4375 L 395.230469 479.804688 C 428.320312 479.804688 461.460938 479.175781 493.777344 477.945312 C 496.550781 449.003906 497.980469 418.921875 498.011719 388.4375 Z M 395.230469 388.4375 " fill-opacity="1" fill-rule="nonzero"/><path fill="#ff2ca5" d="M 607.652344 387.007812 L 607.652344 387.464844 C 607.652344 416.777344 605.078125 445.460938 600.101562 473 C 599.53125 473.054688 598.988281 473.085938 598.414062 473.140625 C 565.414062 475.859375 531.785156 477.890625 497.667969 479.234375 C 500.554688 449.605469 502.042969 418.863281 502.042969 387.464844 L 502.042969 387.007812 Z M 607.652344 387.007812 " fill-opacity="1" fill-rule="nonzero"/><path fill="#000000" d="M 496.09375 480.71875 L 496.265625 479.089844 C 499.152344 449.550781 500.613281 418.722656 500.613281 387.464844 L 500.613281 385.578125 L 609.109375 385.578125 L 609.109375 387.464844 C 609.109375 416.605469 606.566406 445.488281 601.53125 473.257812 L 601.332031 474.34375 L 600.246094 474.429688 C 599.671875 474.484375 599.128906 474.515625 598.558594 474.570312 C 565.699219 477.257812 531.785156 479.320312 497.722656 480.664062 Z M 503.472656 388.4375 C 503.445312 418.863281 502.015625 448.917969 499.269531 477.746094 C 532.726562 476.402344 566.042969 474.371094 598.328125 471.742188 C 598.53125 471.710938 598.730469 471.710938 598.929688 471.683594 C 603.734375 444.714844 606.222656 416.71875 606.28125 388.4375 Z M 503.472656 388.4375 " fill-opacity="1" fill-rule="nonzero"/><path fill="#ffe9d9" d="M 715.894531 387.464844 C 715.894531 412.746094 712.976562 437.367188 707.457031 461.015625 C 675 465.734375 640.308594 469.625 602.734375 472.769531 C 607.710938 445.144531 610.226562 416.578125 610.226562 387.464844 L 610.226562 387.007812 L 715.894531 387.007812 C 715.894531 387.148438 715.894531 387.320312 715.894531 387.464844 Z M 715.894531 387.464844 " fill-opacity="1" fill-rule="nonzero"/><path fill="#000000" d="M 601.015625 474.371094 L 601.359375 472.542969 C 606.335938 445.058594 608.851562 416.433594 608.851562 387.492188 L 608.851562 385.605469 L 717.324219 385.605469 L 717.351562 387.007812 C 717.351562 387.179688 717.351562 387.351562 717.351562 387.492188 C 717.351562 412.429688 714.492188 437.28125 708.886719 461.386719 L 708.65625 462.332031 L 707.683594 462.476562 C 675.054688 467.222656 640.769531 471.054688 602.875 474.226562 Z M 611.683594 388.4375 C 611.628906 416.578125 609.195312 444.402344 604.476562 471.195312 C 641.195312 468.078125 674.542969 464.332031 706.285156 459.757812 C 711.632812 436.480469 714.378906 412.515625 714.433594 388.4375 Z M 611.683594 388.4375 " fill-opacity="1" fill-rule="nonzero"/><path fill="#ff2ca5" d="M 715.894531 384.402344 L 610.253906 384.402344 C 610.082031 355.09375 607.335938 326.351562 602.105469 298.582031 C 639.59375 301.730469 674.199219 305.589844 706.597656 310.28125 C 712.433594 334.074219 715.636719 358.894531 715.894531 384.402344 Z M 715.894531 384.402344 " fill-opacity="1" fill-rule="nonzero"/><path fill="#000000" d="M 717.324219 385.835938 L 608.824219 385.835938 L 608.824219 384.402344 C 608.652344 355.261719 605.90625 326.464844 600.703125 298.8125 L 600.359375 296.953125 L 602.21875 297.097656 C 639.996094 300.242188 674.199219 304.074219 706.800781 308.792969 L 707.742188 308.9375 L 707.972656 309.878906 C 713.917969 334.128906 717.066406 359.179688 717.292969 384.347656 Z M 611.683594 382.972656 L 714.433594 382.972656 C 714.089844 358.839844 711.089844 334.816406 705.425781 311.539062 C 673.710938 306.960938 640.425781 303.246094 603.820312 300.15625 C 608.796875 326.953125 611.425781 354.804688 611.683594 382.972656 Z M 611.683594 382.972656 " fill-opacity="1" fill-rule="nonzero"/><path fill="#ffe9d9" d="M 607.652344 384.402344 L 502.015625 384.402344 C 501.929688 352.804688 500.328125 321.917969 497.296875 292.179688 C 531.554688 293.523438 565.300781 295.550781 598.414062 298.269531 C 598.757812 298.296875 599.101562 298.328125 599.445312 298.355469 C 604.679688 326.007812 607.480469 354.890625 607.652344 384.402344 Z M 607.652344 384.402344 " fill-opacity="1" fill-rule="nonzero"/><path fill="#000000" d="M 609.082031 385.835938 L 500.582031 385.835938 L 500.582031 384.402344 C 500.496094 352.976562 498.898438 321.976562 495.867188 292.292969 L 495.695312 290.664062 L 497.351562 290.71875 C 531.554688 292.0625 565.585938 294.121094 598.53125 296.8125 L 599.5 296.898438 L 600.617188 296.898438 L 600.847656 298.070312 C 606.136719 325.980469 608.910156 355.035156 609.082031 384.375 Z M 503.445312 382.972656 L 606.195312 382.972656 C 605.9375 354.664062 603.246094 326.636719 598.214844 299.671875 C 565.871094 297.011719 532.46875 294.980469 498.867188 293.636719 C 501.785156 322.492188 503.328125 352.519531 503.445312 382.972656 Z M 503.445312 382.972656 " fill-opacity="1" fill-rule="nonzero"/><path fill="#ffae85" d="M 499.441406 384.402344 L 393.800781 384.402344 L 393.800781 290.175781 C 427.832031 290.175781 461.519531 290.804688 494.722656 292.0625 C 497.722656 321.632812 499.324219 352.660156 499.441406 384.402344 Z M 499.441406 384.402344 " fill-opacity="1" fill-rule="nonzero"/><path fill="#000000" d="M 500.871094 385.835938 L 392.371094 385.835938 L 392.371094 288.746094 L 393.800781 288.746094 C 394.03125 288.746094 394.257812 288.746094 394.488281 288.746094 C 428.261719 288.746094 462.007812 289.375 494.777344 290.632812 L 496.007812 290.691406 L 496.121094 291.921875 C 499.152344 321.71875 500.753906 352.832031 500.839844 384.402344 Z M 395.230469 382.972656 L 497.980469 382.972656 C 497.839844 352.433594 496.292969 322.320312 493.40625 293.4375 C 461.320312 292.207031 428.289062 291.605469 395.230469 291.578125 Z M 395.230469 382.972656 " fill-opacity="1" fill-rule="nonzero"/><path fill="#34524f" d="M 391.199219 290.175781 L 391.199219 384.402344 L 285.5625 384.402344 C 285.648438 352.691406 287.25 321.691406 290.28125 292.148438 C 297.945312 291.863281 305.722656 291.605469 313.585938 291.378906 C 339.636719 290.605469 365.519531 290.203125 391.199219 290.175781 Z M 391.199219 290.175781 " fill-opacity="1" fill-rule="nonzero"/><path fill="#000000" d="M 392.628906 385.835938 L 284.132812 385.835938 L 284.132812 384.402344 C 284.21875 352.863281 285.816406 321.777344 288.847656 292.007812 L 288.964844 290.777344 L 290.195312 290.71875 C 297.714844 290.433594 305.550781 290.175781 313.5 289.949219 C 339.496094 289.175781 365.632812 288.773438 391.171875 288.746094 L 392.601562 288.746094 L 392.601562 385.835938 Z M 287.019531 382.972656 L 389.796875 382.972656 L 389.796875 291.605469 C 364.746094 291.664062 339.152344 292.0625 313.644531 292.808594 C 306.121094 293.035156 298.714844 293.265625 291.59375 293.523438 C 288.679688 322.375 287.132812 352.460938 287.019531 382.972656 Z M 287.019531 382.972656 " fill-opacity="1" fill-rule="nonzero"/><path fill="#ff2ca5" d="M 287.675781 292.265625 C 284.644531 322.003906 283.074219 352.863281 282.957031 384.433594 L 177.347656 384.433594 C 177.519531 354.890625 180.324219 325.953125 185.585938 298.269531 C 217.699219 295.609375 251.585938 293.636719 287.675781 292.265625 Z M 287.675781 292.265625 " fill-opacity="1" fill-rule="nonzero"/><path fill="#000000" d="M 284.386719 385.835938 L 175.917969 385.835938 L 175.917969 384.402344 C 176.089844 355.007812 178.863281 325.921875 184.183594 297.984375 L 184.382812 296.925781 L 185.46875 296.839844 C 217.699219 294.207031 251.128906 292.234375 287.648438 290.835938 L 289.277344 290.777344 L 289.105469 292.40625 C 286.074219 322.0625 284.503906 353.003906 284.417969 384.433594 Z M 178.777344 382.972656 L 281.527344 382.972656 C 281.671875 352.546875 283.1875 322.546875 286.074219 293.75 C 250.671875 295.125 218.15625 297.039062 186.757812 299.585938 C 181.722656 326.550781 179.035156 354.605469 178.777344 382.972656 Z M 178.777344 382.972656 " fill-opacity="1" fill-rule="nonzero"/><path fill="#ffae85" d="M 182.925781 298.46875 C 177.664062 326.292969 174.917969 355.0625 174.746094 384.433594 L 69.109375 384.433594 C 69.335938 358.953125 72.539062 334.160156 78.375 310.367188 C 111.347656 305.476562 145.976562 301.53125 182.925781 298.46875 Z M 182.925781 298.46875 " fill-opacity="1" fill-rule="nonzero"/><path fill="#000000" d="M 176.175781 385.835938 L 67.679688 385.835938 L 67.679688 384.402344 C 67.90625 359.265625 71.050781 334.246094 76.972656 310.023438 L 77.199219 309.078125 L 78.144531 308.9375 C 111.402344 304.015625 145.605469 300.128906 182.78125 297.039062 L 184.640625 296.898438 L 184.296875 298.753906 C 179.066406 326.4375 176.320312 355.261719 176.148438 384.460938 Z M 70.566406 382.972656 L 173.316406 382.972656 C 173.574219 354.75 176.203125 326.867188 181.152344 300.042969 C 145.121094 303.074219 111.859375 306.878906 79.515625 311.625 C 73.914062 334.875 70.910156 358.867188 70.566406 382.972656 Z M 70.566406 382.972656 " fill-opacity="1" fill-rule="nonzero"/><path fill="#ffe9d9" d="M 211.609375 205.671875 C 203.886719 222.886719 197.28125 241.21875 191.847656 260.492188 C 188.585938 272.074219 185.785156 283.855469 183.441406 295.808594 C 146.550781 298.871094 112.003906 302.789062 79.058594 307.621094 C 86.582031 278.050781 98.164062 250.113281 113.203125 224.402344 C 144.289062 216.738281 177.003906 210.503906 211.609375 205.671875 Z M 211.609375 205.671875 " fill-opacity="1" fill-rule="nonzero"/><path fill="#000000" d="M 77.144531 309.363281 L 77.660156 307.277344 C 85.09375 277.992188 96.648438 249.855469 111.945312 223.6875 L 112.347656 222.972656 L 113.003906 222.972656 C 143.890625 215.367188 176.976562 209.046875 211.351562 204.242188 L 213.753906 204.242188 L 212.867188 206.242188 C 205.203125 223.371094 198.566406 241.734375 193.164062 260.863281 C 189.929688 272.359375 187.101562 284.199219 184.785156 296.066406 L 184.582031 297.125 L 183.496094 297.210938 C 146.519531 300.269531 112.40625 304.132812 79.203125 309.023438 Z M 114.148438 225.660156 C 99.476562 250.828125 88.355469 277.820312 81.003906 305.90625 C 113.261719 301.214844 146.433594 297.46875 182.265625 294.496094 C 184.554688 282.914062 187.328125 271.359375 190.476562 260.121094 C 195.652344 241.734375 201.972656 224.03125 209.261719 207.445312 C 176.035156 212.164062 144.03125 218.28125 114.148438 225.660156 Z M 114.148438 225.660156 " fill-opacity="1" fill-rule="nonzero"/><path fill="#ffae85" d="M 303.605469 196.378906 C 298.773438 216.308594 294.742188 237.816406 291.507812 260.664062 C 290.164062 270.1875 288.992188 279.851562 287.964844 289.632812 C 251.960938 291.003906 218.15625 292.980469 186.097656 295.582031 C 192.390625 263.464844 201.972656 233.039062 214.609375 205.242188 C 242.980469 201.351562 272.605469 198.40625 303.605469 196.378906 Z M 303.605469 196.378906 " fill-opacity="1" fill-rule="nonzero"/><path fill="#000000" d="M 184.328125 297.183594 L 184.699219 295.324219 C 191.019531 263.039062 200.65625 232.523438 213.324219 204.671875 L 213.695312 203.839844 L 214.523438 203.839844 C 242.78125 199.980469 272.722656 196.976562 303.519531 194.976562 L 305.464844 194.863281 L 305.007812 196.75 C 300.203125 216.566406 296.140625 238.15625 292.9375 260.921875 C 291.59375 270.414062 290.394531 280.167969 289.394531 289.832031 L 289.25 291.0625 L 288.019531 291.121094 C 251.671875 292.492188 218.355469 294.4375 186.214844 297.066406 Z M 215.582031 206.558594 C 203.402344 233.496094 194.078125 262.894531 187.871094 294.007812 C 219.101562 291.492188 251.472656 289.605469 286.675781 288.261719 C 287.675781 278.9375 288.820312 269.613281 290.109375 260.464844 C 293.226562 238.359375 297.144531 217.308594 301.777344 197.921875 C 271.949219 199.921875 242.980469 202.839844 215.582031 206.558594 Z M 215.582031 206.558594 " fill-opacity="1" fill-rule="nonzero"/><path fill="#ff2ca5" d="M 391.199219 193.347656 L 391.199219 287.574219 C 365.492188 287.601562 339.582031 288.003906 313.5 288.773438 C 305.75 289.003906 298.085938 289.261719 290.535156 289.546875 C 294.027344 256.175781 299.34375 224.6875 306.292969 196.207031 C 308.753906 196.035156 311.242188 195.890625 313.730469 195.746094 C 339.753906 194.203125 365.574219 193.402344 391.199219 193.347656 Z M 391.199219 193.347656 " fill-opacity="1" fill-rule="nonzero"/><path fill="#000000" d="M 290.566406 290.976562 L 288.964844 290.976562 L 289.136719 289.402344 C 292.652344 255.859375 297.972656 224.402344 304.921875 195.863281 L 305.179688 194.777344 L 306.265625 194.777344 C 308.867188 194.605469 311.296875 194.460938 313.671875 194.316406 C 339.496094 192.800781 365.574219 192 391.199219 191.917969 L 392.628906 191.917969 L 392.628906 289.003906 L 391.199219 289.003906 C 365.574219 289.03125 339.4375 289.433594 313.558594 290.203125 C 305.835938 290.433594 298.113281 290.691406 290.566406 290.976562 Z M 307.4375 197.550781 C 300.746094 225.203125 295.597656 255.660156 292.136719 288.058594 C 299.117188 287.800781 306.292969 287.574219 313.472656 287.34375 C 338.921875 286.601562 364.574219 286.203125 389.769531 286.144531 L 389.769531 194.777344 C 364.660156 194.863281 339.09375 195.664062 313.84375 197.148438 C 311.757812 197.292969 309.667969 197.40625 307.4375 197.550781 Z M 307.4375 197.550781 " fill-opacity="1" fill-rule="nonzero"/><path fill="#ff2ca5" d="M 494.433594 289.460938 C 461.320312 288.203125 427.746094 287.574219 393.800781 287.574219 L 393.800781 193.347656 C 394.117188 193.347656 394.429688 193.347656 394.773438 193.347656 C 423 193.347656 450.996094 194.230469 478.648438 196.003906 C 485.628906 224.515625 490.945312 256.03125 494.433594 289.460938 Z M 494.433594 289.460938 " fill-opacity="1" fill-rule="nonzero"/><path fill="#000000" d="M 496.035156 290.949219 L 494.378906 290.890625 C 461.71875 289.632812 428.203125 289.003906 394.6875 289.003906 C 394.402344 289.003906 394.085938 289.003906 393.800781 289.003906 L 392.371094 289.003906 L 392.371094 191.917969 L 393.800781 191.917969 C 394.117188 191.917969 394.460938 191.917969 394.773438 191.917969 C 422.886719 191.917969 451.140625 192.800781 478.765625 194.574219 L 479.820312 194.632812 L 480.078125 195.664062 C 487.058594 224.203125 492.375 255.714844 495.894531 289.316406 Z M 395.230469 286.144531 C 428.03125 286.144531 460.863281 286.773438 492.863281 287.972656 C 489.402344 255.515625 484.226562 225.03125 477.535156 197.347656 C 450.480469 195.632812 422.800781 194.777344 395.261719 194.746094 L 395.261719 286.144531 Z M 395.230469 286.144531 " fill-opacity="1" fill-rule="nonzero"/><path fill="#ffe9d9" d="M 598.929688 295.695312 C 598.816406 295.695312 598.730469 295.667969 598.617188 295.667969 C 565.355469 292.949219 531.441406 290.890625 497.039062 289.546875 C 496.007812 279.796875 494.835938 270.15625 493.492188 260.664062 C 490.261719 237.730469 486.199219 216.136719 481.367188 196.175781 C 511.449219 198.179688 541.164062 201.210938 570.417969 205.300781 C 583.058594 233.125 592.667969 263.582031 598.929688 295.695312 Z M 598.929688 295.695312 " fill-opacity="1" fill-rule="nonzero"/><path fill="#000000" d="M 600.703125 297.296875 L 598.5 297.097656 C 565.414062 294.378906 531.238281 292.320312 496.980469 290.976562 L 495.75 290.917969 L 495.609375 289.691406 C 494.578125 279.9375 493.40625 270.242188 492.0625 260.863281 C 488.859375 238.042969 484.769531 216.394531 479.964844 196.492188 L 479.507812 194.605469 L 481.453125 194.71875 C 511.480469 196.691406 541.476562 199.78125 570.617188 203.839844 L 571.390625 203.957031 L 571.707031 204.671875 C 584.375 232.554688 594.011719 263.09375 600.332031 295.410156 Z M 498.324219 288.175781 C 531.667969 289.488281 564.925781 291.492188 597.15625 294.121094 C 590.921875 262.980469 581.601562 233.554688 569.417969 206.585938 C 541.21875 202.667969 512.222656 199.695312 483.195312 197.722656 C 487.828125 217.195312 491.777344 238.273438 494.894531 260.464844 C 496.179688 269.5 497.324219 278.824219 498.324219 288.175781 Z M 498.324219 288.175781 " fill-opacity="1" fill-rule="nonzero"/><path fill="#34524f" d="M 705.914062 307.535156 C 673.539062 302.875 638.996094 299.042969 601.589844 295.925781 C 599.246094 283.914062 596.441406 272.101562 593.183594 260.492188 C 587.75 241.21875 581.140625 222.914062 573.449219 205.699219 C 581.886719 206.902344 590.292969 208.1875 598.671875 209.558594 C 624.296875 213.765625 648.601562 218.65625 671.765625 224.289062 C 686.78125 249.996094 698.390625 277.964844 705.914062 307.535156 Z M 705.914062 307.535156 " fill-opacity="1" fill-rule="nonzero"/><path fill="#000000" d="M 707.828125 309.25 L 705.710938 308.9375 C 673.253906 304.273438 639.136719 300.472656 601.476562 297.324219 L 600.386719 297.238281 L 600.1875 296.183594 C 597.871094 284.285156 595.039062 272.390625 591.808594 260.863281 C 586.433594 241.761719 579.796875 223.402344 572.132812 206.273438 L 571.21875 204.269531 L 573.621094 204.269531 C 581.914062 205.441406 590.40625 206.757812 598.871094 208.128906 C 624.4375 212.335938 649.0625 217.28125 672.054688 222.859375 L 672.652344 223 L 672.96875 223.515625 C 688.296875 249.710938 699.851562 277.851562 707.3125 307.132812 Z M 602.789062 294.582031 C 639.28125 297.640625 672.425781 301.328125 703.996094 305.820312 C 696.648438 277.707031 685.464844 250.710938 670.792969 225.546875 C 648.03125 220.054688 623.667969 215.136719 598.414062 210.992188 C 590.835938 209.730469 583.230469 208.558594 575.792969 207.5 C 583.085938 224.089844 589.378906 241.761719 594.554688 260.121094 C 597.730469 271.359375 600.503906 282.96875 602.789062 294.582031 Z M 602.789062 294.582031 " fill-opacity="1" fill-rule="nonzero"/><path fill="#ff2ca5" d="M 669.878906 221.171875 C 647.402344 215.792969 623.867188 211.078125 599.074219 207.015625 C 590.152344 205.558594 581.171875 204.183594 572.164062 202.898438 C 564.640625 186.453125 556.0625 171.039062 546.539062 156.710938 C 532.296875 135.378906 516.398438 117.304688 499.066406 102.722656 C 520.972656 105.351562 542.679688 108.839844 564.128906 113.160156 C 607.28125 140.328125 643.597656 177.417969 669.878906 221.171875 Z M 669.878906 221.171875 " fill-opacity="1" fill-rule="nonzero"/><path fill="#000000" d="M 672.855469 223.34375 L 669.535156 222.542969 C 647.289062 217.222656 623.496094 212.449219 598.816406 208.386719 C 589.894531 206.929688 580.886719 205.558594 572.046875 204.296875 L 571.21875 204.296875 L 570.847656 203.46875 C 563.355469 187.140625 554.777344 171.667969 545.339844 157.484375 C 531.238281 136.324219 515.367188 118.25 498.152344 103.777344 L 494.492188 100.691406 L 499.238281 101.261719 C 521.089844 103.894531 543.023438 107.410156 564.414062 111.730469 L 564.671875 111.785156 L 564.898438 111.929688 C 586.460938 125.511719 606.480469 141.671875 624.351562 159.945312 C 642.226562 178.21875 657.953125 198.578125 671.109375 220.425781 Z M 573.136719 201.609375 C 581.773438 202.839844 590.578125 204.183594 599.300781 205.613281 C 622.808594 209.476562 645.542969 213.992188 666.878906 218.996094 C 640.996094 176.960938 605.363281 140.871094 563.613281 114.503906 C 543.910156 110.527344 523.746094 107.238281 503.585938 104.722656 C 519.601562 118.820312 534.441406 136.035156 547.710938 155.941406 C 557.121094 170.039062 565.644531 185.394531 573.136719 201.609375 Z M 573.136719 201.609375 " fill-opacity="1" fill-rule="nonzero"/><path fill="#34524f" d="M 557.863281 109.296875 C 537.332031 105.351562 516.484375 102.179688 495.464844 99.746094 C 489.546875 94.972656 483.453125 90.625 477.21875 86.648438 C 461.835938 76.898438 445.90625 69.890625 429.578125 65.660156 C 476.019531 71.0625 519.515625 86.304688 557.863281 109.296875 Z M 557.863281 109.296875 " fill-opacity="1" fill-rule="nonzero"/><path fill="#000000" d="M 565.527344 112.214844 L 557.578125 110.699219 C 537.21875 106.78125 516.285156 103.578125 495.351562 101.148438 L 494.921875 101.148438 L 494.519531 100.832031 C 488.660156 96.113281 482.566406 91.738281 476.417969 87.820312 C 461.234375 78.183594 445.332031 71.179688 429.203125 67.003906 L 429.71875 64.199219 C 452.683594 66.859375 475.390625 72.007812 497.210938 79.5 C 518.542969 86.820312 539.191406 96.429688 558.609375 108.039062 Z M 496.035156 98.347656 C 514.140625 100.433594 532.269531 103.121094 550 106.351562 C 517.597656 88.050781 482.824219 75.667969 446.304688 69.460938 C 457.085938 73.550781 467.695312 78.898438 477.964844 85.390625 C 484.113281 89.335938 490.203125 93.683594 496.035156 98.347656 Z M 496.035156 98.347656 " fill-opacity="1" fill-rule="nonzero"/><path fill="#34524f" d="M 569.132812 202.496094 C 540.078125 198.492188 510.59375 195.492188 480.707031 193.546875 C 477.535156 180.707031 474.015625 168.523438 470.214844 157.054688 C 462.234375 133.121094 453.199219 113.273438 443.273438 97.859375 C 460.433594 98.804688 477.503906 100.261719 494.433594 102.207031 C 512.566406 116.933594 529.351562 135.722656 544.367188 158.199219 C 553.574219 171.984375 561.839844 186.796875 569.132812 202.496094 Z M 569.132812 202.496094 " fill-opacity="1" fill-rule="nonzero"/><path fill="#000000" d="M 571.535156 204.269531 L 568.929688 203.898438 C 540.078125 199.921875 510.363281 196.890625 480.621094 194.949219 L 479.59375 194.890625 L 479.335938 193.859375 C 476.191406 181.136719 472.671875 168.867188 468.871094 157.484375 C 460.949219 133.71875 451.941406 113.902344 442.101562 98.601562 L 440.585938 96.257812 L 443.390625 96.402344 C 460.492188 97.34375 477.734375 98.804688 494.636719 100.746094 L 495.066406 100.804688 L 495.378906 101.0625 C 513.738281 115.992188 530.640625 134.949219 545.597656 157.371094 C 554.746094 171.125 563.125 186.082031 570.476562 201.867188 Z M 481.851562 192.171875 C 510.421875 194.0625 538.933594 196.949219 566.730469 200.722656 C 559.722656 185.9375 551.800781 171.898438 543.195312 158.972656 C 528.496094 136.894531 511.878906 118.25 493.890625 103.550781 C 478.078125 101.75 461.976562 100.347656 445.992188 99.433594 C 455.398438 114.589844 464.007812 133.804688 471.585938 156.597656 C 475.273438 167.75 478.734375 179.734375 481.851562 192.171875 Z M 481.851562 192.171875 " fill-opacity="1" fill-rule="nonzero"/><path fill="#ffe9d9" d="M 490.6875 99.203125 C 479.507812 97.972656 468.242188 96.972656 456.972656 96.171875 C 451.824219 95.800781 446.707031 95.484375 441.53125 95.230469 C 439.558594 92.3125 437.554688 89.539062 435.523438 86.964844 C 426.886719 76.011719 417.910156 68.488281 408.644531 64.429688 C 437.585938 67.6875 465.351562 79.558594 490.6875 99.203125 Z M 490.6875 99.203125 " fill-opacity="1" fill-rule="nonzero"/><path fill="#000000" d="M 495.578125 101.175781 L 490.546875 100.632812 C 479.480469 99.402344 468.15625 98.402344 456.886719 97.601562 C 451.480469 97.230469 446.449219 96.914062 441.472656 96.660156 L 440.757812 96.628906 L 440.359375 96.03125 C 438.414062 93.140625 436.410156 90.394531 434.410156 87.851562 C 425.972656 77.125 417.109375 69.691406 408.101562 65.746094 L 399.433594 61.941406 L 408.84375 63 C 437.984375 66.316406 465.839844 78.097656 491.605469 98.089844 Z M 442.332031 93.796875 C 447.078125 94.054688 451.910156 94.34375 457.085938 94.714844 C 466.667969 95.398438 476.277344 96.230469 485.714844 97.203125 C 463.894531 81.160156 440.617188 71.007812 416.394531 66.917969 C 423.34375 71.351562 430.148438 77.753906 436.667969 86.019531 C 438.554688 88.480469 440.472656 91.082031 442.332031 93.796875 Z M 442.332031 93.796875 " fill-opacity="1" fill-rule="nonzero"/><path fill="#ffae85" d="M 477.992188 193.347656 C 450.222656 191.574219 422.140625 190.714844 393.800781 190.742188 L 393.800781 96.515625 C 409.300781 96.488281 424.714844 96.886719 440.070312 97.660156 C 450.28125 113.101562 459.574219 133.292969 467.753906 157.855469 C 471.472656 169.039062 474.902344 180.90625 477.992188 193.347656 Z M 477.992188 193.347656 " fill-opacity="1" fill-rule="nonzero"/><path fill="#000000" d="M 479.851562 194.917969 L 477.90625 194.804688 C 450.625 193.058594 422.683594 192.203125 394.859375 192.203125 C 394.515625 192.203125 394.144531 192.203125 393.800781 192.203125 L 392.371094 192.203125 L 392.371094 95.085938 L 393.800781 95.085938 C 409.242188 95.058594 424.828125 95.457031 440.128906 96.230469 L 440.84375 96.257812 L 441.246094 96.859375 C 451.511719 112.386719 460.890625 132.75 469.097656 157.398438 C 472.816406 168.523438 476.277344 180.503906 479.394531 193.003906 Z M 395.230469 189.3125 C 422.3125 189.3125 449.539062 190.171875 476.132812 191.800781 C 473.160156 180.046875 469.871094 168.808594 466.382812 158.3125 C 458.34375 134.234375 449.222656 114.304688 439.242188 99.0625 C 424.6875 98.316406 409.875 97.945312 395.203125 97.945312 L 395.203125 189.3125 Z M 395.230469 189.3125 " fill-opacity="1" fill-rule="nonzero"/><path fill="#34524f" d="M 438.269531 95.027344 C 423.515625 94.3125 408.671875 93.941406 393.800781 93.941406 L 393.800781 63.515625 C 407.5 64.085938 420.824219 72.492188 433.496094 88.566406 C 435.097656 90.597656 436.699219 92.769531 438.269531 95.027344 Z M 438.269531 95.027344 " fill-opacity="1" fill-rule="nonzero"/><path fill="#000000" d="M 441.101562 96.601562 L 438.214844 96.457031 C 423.542969 95.742188 408.613281 95.371094 393.800781 95.371094 L 392.371094 95.371094 L 392.371094 62 L 393.859375 62.054688 C 407.984375 62.65625 421.683594 71.234375 434.609375 87.648438 C 436.238281 89.738281 437.871094 91.941406 439.441406 94.226562 Z M 395.230469 92.511719 C 408.613281 92.539062 422.113281 92.855469 435.410156 93.457031 C 434.410156 92.054688 433.378906 90.710938 432.351562 89.421875 C 420.425781 74.324219 407.957031 66.117188 395.203125 65.03125 L 395.203125 92.511719 Z M 395.230469 92.511719 " fill-opacity="1" fill-rule="nonzero"/><path fill="#ffae85" d="M 391.199219 63.515625 L 391.199219 93.96875 C 376.355469 94.027344 361.488281 94.429688 346.617188 95.199219 C 348.21875 92.855469 349.875 90.652344 351.507812 88.535156 C 364.175781 72.492188 377.5 64.058594 391.199219 63.515625 Z M 391.199219 63.515625 " fill-opacity="1" fill-rule="nonzero"/><path fill="#000000" d="M 343.785156 96.773438 L 345.445312 94.371094 C 347.074219 92.027344 348.730469 89.738281 350.390625 87.648438 C 363.316406 71.265625 377.015625 62.65625 391.140625 62.054688 L 392.628906 62 L 392.628906 95.371094 L 391.199219 95.371094 C 376.472656 95.429688 361.488281 95.828125 346.671875 96.601562 Z M 389.769531 65.03125 C 377.042969 66.117188 364.546875 74.324219 352.621094 89.421875 C 351.5625 90.765625 350.503906 92.167969 349.445312 93.628906 C 362.886719 92.96875 376.414062 92.597656 389.742188 92.539062 L 389.742188 65.03125 Z M 389.769531 65.03125 " fill-opacity="1" fill-rule="nonzero"/><path fill="#ffe9d9" d="M 391.199219 96.515625 L 391.199219 190.742188 C 365.519531 190.800781 339.636719 191.601562 313.585938 193.144531 C 311.355469 193.261719 309.152344 193.402344 306.953125 193.546875 C 310.070312 181.019531 313.5 169.09375 317.246094 157.855469 C 325.398438 133.40625 334.632812 113.300781 344.785156 97.886719 C 360.34375 97.03125 375.8125 96.574219 391.199219 96.515625 Z M 391.199219 96.515625 " fill-opacity="1" fill-rule="nonzero"/><path fill="#000000" d="M 305.09375 195.089844 L 305.578125 193.203125 C 308.695312 180.648438 312.183594 168.609375 315.902344 157.398438 C 324.082031 132.890625 333.402344 112.585938 343.613281 97.085938 L 344.015625 96.488281 L 344.730469 96.457031 C 360.171875 95.601562 375.8125 95.144531 391.199219 95.085938 L 392.628906 95.085938 L 392.628906 192.171875 L 391.199219 192.171875 C 365.574219 192.230469 339.496094 193.03125 313.671875 194.574219 C 311.441406 194.691406 309.238281 194.832031 307.039062 194.976562 Z M 345.585938 99.261719 C 335.664062 114.472656 326.597656 134.351562 318.589844 158.3125 C 315.074219 168.867188 311.785156 180.191406 308.78125 192 C 310.355469 191.917969 311.898438 191.800781 313.472656 191.714844 C 338.867188 190.230469 364.519531 189.398438 389.742188 189.3125 L 389.742188 97.945312 C 375.128906 98.03125 360.285156 98.488281 345.585938 99.261719 Z M 345.585938 99.261719 " fill-opacity="1" fill-rule="nonzero"/><path fill="#34524f" d="M 341.582031 98.058594 C 331.71875 113.445312 322.738281 133.207031 314.789062 157.027344 C 310.957031 168.550781 307.410156 180.792969 304.234375 193.71875 C 273.492188 195.71875 244.066406 198.636719 215.871094 202.441406 C 223.160156 186.769531 231.425781 171.957031 240.605469 158.144531 C 255.476562 135.808594 272.148438 117.164062 290.136719 102.464844 C 297.714844 101.605469 305.378906 100.804688 313.101562 100.117188 C 322.621094 99.316406 332.117188 98.601562 341.582031 98.058594 Z M 341.582031 98.058594 " fill-opacity="1" fill-rule="nonzero"/><path fill="#000000" d="M 213.496094 204.210938 L 214.609375 201.839844 C 221.933594 186.054688 230.3125 171.097656 239.460938 157.371094 C 254.304688 135.09375 271.0625 116.246094 289.277344 101.378906 L 289.59375 101.121094 L 290.023438 101.0625 C 297.484375 100.203125 305.207031 99.433594 313.015625 98.71875 C 322.566406 97.859375 332.144531 97.171875 341.527344 96.628906 L 344.328125 96.457031 L 342.8125 98.832031 C 333.03125 114.101562 324.054688 133.835938 316.1875 157.484375 C 312.386719 168.894531 308.839844 181.21875 305.664062 194.0625 L 305.40625 195.089844 L 304.378906 195.148438 C 273.777344 197.148438 244.09375 200.066406 216.125 203.871094 Z M 290.738281 103.863281 C 272.890625 118.507812 256.421875 137.066406 241.835938 158.972656 C 233.226562 171.898438 225.304688 185.9375 218.300781 200.695312 C 245.238281 197.121094 273.75 194.316406 303.121094 192.375 C 306.238281 179.820312 309.726562 167.78125 313.441406 156.597656 C 320.992188 133.921875 329.542969 114.789062 338.894531 99.660156 C 330.429688 100.175781 321.824219 100.832031 313.242188 101.578125 C 305.609375 102.261719 298.058594 103.035156 290.738281 103.863281 Z M 290.738281 103.863281 " fill-opacity="1" fill-rule="nonzero"/><path fill="#34524f" d="M 376.355469 64.402344 C 367.089844 68.460938 358.113281 75.984375 349.476562 86.933594 C 347.386719 89.566406 345.359375 92.367188 343.355469 95.371094 C 333.203125 95.945312 323.023438 96.660156 312.898438 97.574219 C 306.550781 98.144531 300.261719 98.773438 293.96875 99.460938 C 319.390625 79.671875 347.300781 67.6875 376.355469 64.402344 Z M 376.355469 64.402344 " fill-opacity="1" fill-rule="nonzero"/><path fill="#000000" d="M 289.105469 101.433594 L 293.082031 98.316406 C 318.933594 78.183594 346.902344 66.289062 376.1875 62.972656 L 385.59375 61.914062 L 376.929688 65.714844 C 367.921875 69.664062 359.054688 77.097656 350.621094 87.820312 C 348.5625 90.425781 346.53125 93.226562 344.558594 96.171875 L 344.128906 96.800781 L 343.414062 96.800781 C 333.316406 97.375 323.082031 98.117188 313.042969 99.003906 C 306.78125 99.546875 300.429688 100.203125 294.140625 100.890625 Z M 368.605469 66.945312 C 344.242188 71.0625 320.851562 81.300781 298.914062 97.488281 C 303.546875 97 308.152344 96.542969 312.757812 96.144531 C 322.621094 95.257812 332.660156 94.542969 342.554688 93.96875 C 344.441406 91.167969 346.386719 88.507812 348.332031 86.019531 C 354.878906 77.785156 361.660156 71.378906 368.605469 66.945312 Z M 368.605469 66.945312 " fill-opacity="1" fill-rule="nonzero"/><path fill="#ffae85" d="M 355.425781 65.660156 C 339.09375 69.890625 323.167969 76.898438 307.78125 86.648438 C 301.433594 90.679688 295.226562 95.144531 289.191406 100.003906 C 267.917969 102.464844 247.039062 105.636719 226.707031 109.527344 C 265.199219 86.421875 308.808594 71.0625 355.425781 65.660156 Z M 355.425781 65.660156 " fill-opacity="1" fill-rule="nonzero"/><path fill="#000000" d="M 219.101562 112.445312 L 225.992188 108.296875 C 245.4375 96.601562 266.171875 86.964844 287.5625 79.585938 C 309.441406 72.066406 332.230469 66.890625 355.253906 64.199219 L 355.765625 67.003906 C 339.609375 71.179688 323.738281 78.183594 308.554688 87.820312 C 302.261719 91.796875 296.054688 96.257812 290.109375 101.089844 L 289.792969 101.347656 L 289.394531 101.40625 C 268.230469 103.835938 247.242188 107.039062 227.023438 110.929688 Z M 338.695312 69.492188 C 302.03125 75.726562 267.085938 88.164062 234.570312 106.640625 C 252.214844 103.4375 270.375 100.777344 288.648438 98.632812 C 294.597656 93.855469 300.773438 89.394531 307.039062 85.449219 C 317.304688 78.898438 327.914062 73.582031 338.695312 69.492188 Z M 338.695312 69.492188 " fill-opacity="1" fill-rule="nonzero"/><path fill="#ff2ca5" d="M 285.53125 103.035156 C 268.34375 117.5625 252.589844 135.550781 238.460938 156.742188 C 228.9375 171.039062 220.386719 186.453125 212.839844 202.898438 C 178.492188 207.644531 145.949219 213.765625 115.035156 221.3125 C 141.257812 177.617188 177.492188 140.554688 220.53125 113.386719 C 241.636719 109.125 263.3125 105.695312 285.53125 103.035156 Z M 285.53125 103.035156 " fill-opacity="1" fill-rule="nonzero"/><path fill="#000000" d="M 112.0625 223.488281 L 113.835938 220.542969 C 126.933594 198.695312 142.632812 178.390625 160.476562 160.117188 C 178.320312 141.871094 198.28125 125.714844 219.789062 112.128906 L 220.128906 111.902344 L 220.417969 111.902344 C 241.433594 107.695312 263.285156 104.238281 285.390625 101.605469 L 290.109375 101.035156 L 286.476562 104.121094 C 269.433594 118.535156 253.675781 136.523438 239.691406 157.511719 C 230.253906 171.699219 221.675781 187.140625 214.183594 203.46875 L 213.808594 204.296875 L 212.980469 204.296875 C 178.894531 209.015625 146.09375 215.195312 115.40625 222.65625 Z M 221.101562 114.703125 C 179.4375 141.070312 143.890625 177.101562 118.066406 219.082031 C 147.664062 211.992188 179.207031 206.101562 211.894531 201.554688 C 219.359375 185.367188 227.878906 170.011719 237.289062 155.910156 C 250.472656 136.152344 265.171875 119.050781 281.070312 105.007812 C 260.679688 107.582031 240.519531 110.8125 221.101562 114.703125 Z M 221.101562 114.703125 " fill-opacity="1" fill-rule="nonzero"/><g clip-path="url(#394a703b6f)"><path fill="#ff2ca5" d="M 100.851562 605.777344 C 100.621094 613.613281 101.050781 637.320312 118.839844 659.167969 C 145.492188 691.882812 188.246094 692.28125 193.363281 692.253906 C 187.558594 691.769531 156.242188 689.679688 129.761719 711.042969 C 97.761719 736.894531 100.480469 774.757812 100.851562 778.730469 C 100.964844 773.699219 101.050781 737.351562 69.367188 712.101562 C 44.3125 692.140625 15.632812 692.054688 8.308594 692.226562 C 13.285156 692.398438 53.835938 693.054688 80.949219 662.371094 C 101.566406 639.0625 101.164062 612.554688 100.851562 605.777344 Z M 100.851562 605.777344 " fill-opacity="1" fill-rule="nonzero"/><path fill="#000000" d="M 99.421875 778.875 C 99.308594 777.761719 99.164062 775.5 99.222656 772.382812 C 98.25 759.570312 93.128906 732.890625 68.480469 713.246094 C 48.089844 697 24.984375 694 12.6875 693.683594 C 10.742188 693.742188 9.253906 693.710938 8.28125 693.683594 L 8.28125 690.824219 C 9.539062 690.796875 11.027344 690.796875 12.714844 690.824219 C 25.46875 690.480469 57.355469 686.964844 79.890625 661.453125 C 95.902344 643.324219 99.136719 623.046875 99.476562 611.382812 C 99.394531 609.292969 99.394531 607.40625 99.449219 605.71875 L 102.308594 605.691406 C 102.394531 607.234375 102.425781 609.121094 102.367188 611.351562 C 102.882812 623.21875 106.257812 641.40625 120.011719 658.25 C 140.828125 683.816406 171.457031 689.367188 186.183594 690.539062 C 188.730469 690.539062 191.160156 690.625 193.535156 690.824219 L 193.421875 693.683594 C 192.191406 693.683594 189.761719 693.65625 186.441406 693.398438 C 173.917969 693.398438 150.753906 695.972656 130.734375 712.15625 C 117.582031 722.796875 108.773438 736.695312 104.625 753.453125 C 102.765625 760.945312 102.222656 767.523438 102.136719 772.15625 C 102.367188 775.101562 102.367188 777.359375 102.339844 778.761719 Z M 27.382812 692.253906 C 39.96875 694.398438 55.78125 699.460938 70.253906 710.984375 C 83.808594 721.765625 93.273438 735.777344 98.390625 752.566406 C 99.164062 755.140625 99.792969 757.597656 100.308594 759.945312 C 100.679688 757.65625 101.164062 755.226562 101.792969 752.707031 C 106.113281 735.320312 115.234375 720.9375 128.90625 709.898438 C 140.257812 700.71875 153.785156 694.714844 169.113281 691.996094 C 170.257812 691.796875 171.429688 691.625 172.601562 691.453125 C 169.828125 690.910156 166.882812 690.195312 163.824219 689.335938 C 144.632812 683.847656 129.132812 674.007812 117.753906 660.023438 C 107.800781 647.8125 103.109375 634.945312 100.992188 624.105469 C 98.878906 635.660156 93.757812 650.042969 82.035156 663.3125 C 65.105469 682.472656 43.171875 689.652344 27.382812 692.253906 Z M 27.382812 692.253906 " fill-opacity="1" fill-rule="nonzero"/></g><path fill="#ff2ca5" d="M 275.582031 536.597656 C 275.292969 546.722656 275.867188 577.378906 298.828125 605.605469 C 333.289062 647.898438 388.539062 648.414062 395.175781 648.386719 C 387.683594 647.757812 347.1875 645.039062 312.984375 672.664062 C 271.605469 706.066406 275.121094 755.023438 275.582031 760.144531 C 275.722656 753.652344 275.835938 706.667969 234.886719 674.039062 C 202.515625 648.242188 165.421875 648.128906 155.988281 648.355469 C 162.421875 648.558594 214.839844 649.414062 249.871094 609.78125 C 276.523438 579.636719 276.007812 545.378906 275.582031 536.597656 Z M 275.582031 536.597656 " fill-opacity="1" fill-rule="nonzero"/><path fill="#000000" d="M 274.152344 760.316406 C 274.007812 758.886719 273.835938 755.96875 273.894531 751.9375 C 272.636719 735.292969 266 700.691406 234 675.210938 C 207.460938 654.078125 177.347656 650.214844 161.449219 649.84375 C 158.933594 649.902344 157.042969 649.871094 155.929688 649.84375 L 155.929688 646.984375 C 157.558594 646.957031 159.445312 646.925781 161.621094 646.984375 C 178.179688 646.554688 219.5 641.980469 248.757812 608.894531 C 269.546875 585.355469 273.722656 559.019531 274.179688 543.890625 C 274.066406 541.203125 274.066406 538.742188 274.121094 536.597656 L 276.980469 536.570312 C 277.097656 539.03125 277.125 541.519531 277.039062 544.035156 C 277.726562 559.449219 282.15625 582.957031 299.917969 604.746094 C 326.941406 637.917969 366.664062 645.125 385.765625 646.613281 C 389.027344 646.613281 392.199219 646.726562 395.261719 646.984375 L 395.144531 649.84375 C 393.542969 649.84375 390.398438 649.816406 386.136719 649.5 C 369.894531 649.5 339.839844 652.820312 313.84375 673.835938 C 296.742188 687.648438 285.332031 705.667969 279.957031 727.429688 C 277.523438 737.152344 276.839844 745.703125 276.722656 751.738281 C 277.011719 755.511719 277.011719 758.457031 276.980469 760.257812 Z M 177.863281 648.386719 C 194.449219 650.875 216.070312 657.25 235.773438 672.949219 C 253.21875 686.847656 265.429688 704.867188 272.003906 726.511719 C 273.265625 730.6875 274.238281 734.664062 274.953125 738.324219 C 275.464844 734.722656 276.179688 730.804688 277.210938 726.683594 C 279.667969 716.789062 283.417969 707.46875 288.390625 699.003906 C 294.511719 688.566406 302.460938 679.328125 312.097656 671.578125 C 326.742188 659.765625 344.15625 652.019531 363.859375 648.527344 C 366.207031 648.128906 368.550781 647.785156 370.953125 647.5 C 366.632812 646.699219 361.972656 645.667969 357.082031 644.269531 C 346.128906 641.152344 335.949219 636.804688 326.796875 631.398438 C 315.53125 624.734375 305.777344 616.355469 297.773438 606.546875 C 284.273438 589.988281 278.269531 572.488281 275.78125 558.074219 C 275.378906 560.5625 274.894531 563.082031 274.320312 565.539062 C 270.320312 582.554688 262.484375 597.769531 250.988281 610.78125 C 242.835938 619.988281 233.113281 627.765625 222.074219 633.859375 C 213.09375 638.835938 203.171875 642.722656 192.621094 645.441406 C 187.328125 646.785156 182.382812 647.726562 177.863281 648.386719 Z M 177.863281 648.386719 " fill-opacity="1" fill-rule="nonzero"/><path fill="#ff2ca5" d="M 700.621094 625.507812 C 700.480469 630.828125 700.765625 646.898438 712.804688 661.683594 C 730.878906 683.875 759.847656 684.132812 763.308594 684.105469 C 759.390625 683.761719 738.140625 682.359375 720.210938 696.828125 C 698.503906 714.359375 700.363281 740.011719 700.59375 742.699219 C 700.652344 739.296875 700.734375 714.644531 679.257812 697.542969 C 662.300781 684.019531 642.855469 683.960938 637.90625 684.074219 C 641.28125 684.191406 668.765625 684.648438 687.125 663.855469 C 701.109375 648.070312 700.851562 630.082031 700.621094 625.507812 Z M 700.621094 625.507812 " fill-opacity="1" fill-rule="nonzero"/><path fill="#000000" d="M 699.191406 742.84375 C 699.132812 742.070312 699.019531 740.527344 699.050781 738.410156 C 698.390625 729.800781 694.960938 711.871094 678.402344 698.6875 C 664.703125 687.765625 649.148438 685.761719 640.882812 685.535156 C 639.566406 685.5625 638.539062 685.5625 637.878906 685.535156 L 637.878906 682.675781 C 638.738281 682.644531 639.738281 682.644531 640.882812 682.675781 C 649.460938 682.445312 670.910156 680.070312 686.039062 662.941406 C 696.789062 650.789062 698.964844 637.148438 699.191406 629.3125 C 699.132812 627.882812 699.132812 626.59375 699.164062 625.480469 L 702.023438 625.449219 C 702.082031 626.507812 702.109375 627.796875 702.050781 629.28125 C 702.394531 637.261719 704.683594 649.472656 713.890625 660.769531 C 727.933594 678.011719 748.664062 681.730469 758.53125 682.472656 C 760.617188 682.472656 762.277344 682.558594 763.421875 682.675781 L 763.308594 685.535156 C 762.335938 685.535156 760.648438 685.503906 758.445312 685.363281 C 749.980469 685.390625 734.507812 687.136719 721.097656 697.972656 C 704.367188 711.472656 702.023438 730.117188 701.878906 738.496094 C 702.023438 740.441406 702.023438 741.925781 701.996094 742.785156 Z M 653.378906 684.105469 C 661.5 685.789062 671.222656 689.28125 680.203125 696.429688 C 692.386719 706.125 697.820312 718.25 700.222656 727.773438 C 700.394531 726.855469 700.621094 725.941406 700.851562 724.96875 C 703.796875 713.101562 710.03125 703.234375 719.382812 695.714844 C 728.476562 688.363281 738.457031 684.992188 746.777344 683.53125 C 735.910156 681.015625 722.125 675.324219 711.746094 662.570312 C 705.597656 655.019531 702.394531 647.097656 700.765625 640.179688 C 699.105469 647.671875 695.558594 656.566406 688.269531 664.800781 C 677.515625 676.925781 663.875 682.015625 653.378906 684.105469 Z M 653.378906 684.105469 " fill-opacity="1" fill-rule="nonzero"/><g clip-path="url(#3c1ef8a5ff)"><path fill="#ff2ca5" d="M 747.007812 52.617188 C 746.863281 57.9375 747.148438 74.007812 759.1875 88.792969 C 777.261719 110.984375 806.230469 111.242188 809.691406 111.214844 C 805.773438 110.871094 784.527344 109.46875 766.597656 123.941406 C 744.890625 141.46875 746.75 167.121094 746.976562 169.808594 C 747.035156 166.40625 747.121094 141.757812 725.644531 124.65625 C 708.6875 111.128906 689.238281 111.070312 684.292969 111.1875 C 687.667969 111.300781 715.148438 111.757812 733.507812 90.96875 C 747.492188 75.183594 747.207031 57.222656 747.007812 52.617188 Z M 747.007812 52.617188 " fill-opacity="1" fill-rule="nonzero"/><path fill="#000000" d="M 745.578125 169.953125 C 745.519531 169.179688 745.40625 167.636719 745.433594 165.519531 C 744.777344 156.914062 741.34375 138.984375 724.785156 125.800781 C 711.089844 114.875 695.53125 112.875 687.265625 112.644531 C 685.953125 112.671875 684.921875 112.671875 684.265625 112.644531 L 684.265625 109.785156 C 685.121094 109.757812 686.121094 109.757812 687.265625 109.785156 C 695.875 109.554688 717.292969 107.183594 732.421875 90.050781 C 743.175781 77.898438 745.347656 64.257812 745.578125 56.421875 C 745.519531 54.992188 745.519531 53.707031 745.546875 52.5625 L 748.40625 52.53125 C 748.464844 53.589844 748.492188 54.878906 748.4375 56.394531 C 748.78125 64.371094 751.066406 76.554688 760.277344 87.878906 C 774.316406 105.125 795.019531 108.839844 804.917969 109.585938 C 807.003906 109.585938 808.664062 109.671875 809.804688 109.785156 L 809.691406 112.644531 C 808.71875 112.644531 807.03125 112.617188 804.832031 112.472656 C 796.367188 112.5 780.894531 114.246094 767.480469 125.085938 C 750.753906 138.609375 748.40625 157.226562 748.265625 165.605469 C 748.40625 167.550781 748.40625 169.039062 748.378906 169.867188 Z M 699.734375 111.242188 C 707.855469 112.929688 717.578125 116.417969 726.558594 123.570312 C 738.742188 133.261719 744.175781 145.386719 746.578125 154.910156 C 746.75 153.996094 746.976562 153.082031 747.207031 152.109375 C 750.152344 140.242188 756.386719 130.375 765.738281 122.855469 C 774.832031 115.503906 784.8125 112.128906 793.132812 110.671875 C 782.265625 108.15625 768.484375 102.464844 758.101562 89.710938 C 751.953125 82.160156 748.75 74.238281 747.121094 67.316406 C 745.460938 74.808594 741.917969 83.703125 734.625 91.941406 C 723.898438 104.035156 710.257812 109.125 699.734375 111.242188 Z M 699.734375 111.242188 " fill-opacity="1" fill-rule="nonzero"/></g><g clip-path="url(#cecc70a7cb)"><path fill="#ff2ca5" d="M 109.6875 31.199219 C 109.542969 36.519531 109.832031 52.589844 121.871094 67.375 C 139.945312 89.566406 168.914062 89.824219 172.371094 89.796875 C 168.453125 89.453125 147.207031 88.050781 129.277344 102.519531 C 107.570312 120.050781 109.429688 145.703125 109.660156 148.390625 C 109.714844 144.988281 109.800781 120.335938 88.324219 103.234375 C 71.367188 89.710938 51.921875 89.652344 46.972656 89.765625 C 50.347656 89.882812 77.832031 90.339844 96.191406 69.546875 C 110.171875 53.734375 109.917969 35.773438 109.6875 31.199219 Z M 109.6875 31.199219 " fill-opacity="1" fill-rule="nonzero"/><path fill="#000000" d="M 108.285156 148.503906 C 108.230469 147.734375 108.113281 146.1875 108.144531 144.074219 C 107.484375 135.464844 104.054688 117.535156 87.496094 104.351562 C 73.796875 93.425781 58.242188 91.425781 49.976562 91.195312 C 48.660156 91.226562 47.632812 91.226562 46.972656 91.195312 L 46.972656 88.335938 C 47.832031 88.308594 48.832031 88.308594 49.976562 88.335938 C 58.554688 88.109375 80.003906 85.734375 95.132812 68.605469 C 105.882812 56.449219 108.058594 42.808594 108.285156 34.972656 C 108.230469 33.542969 108.230469 32.257812 108.257812 31.140625 L 111.117188 31.113281 C 111.175781 32.171875 111.203125 33.457031 111.144531 34.945312 C 111.488281 42.925781 113.777344 55.136719 122.984375 66.429688 C 137.027344 83.675781 157.730469 87.394531 167.625 88.136719 C 169.714844 88.136719 171.371094 88.222656 172.515625 88.335938 L 172.402344 91.195312 C 171.429688 91.195312 169.742188 91.167969 167.539062 91.023438 C 159.074219 91.054688 143.605469 92.796875 130.191406 103.636719 C 113.460938 117.132812 111.117188 135.78125 110.972656 144.160156 C 111.117188 146.101562 111.117188 147.589844 111.089844 148.449219 Z M 62.445312 89.796875 C 70.566406 91.480469 80.289062 94.972656 89.269531 102.121094 C 101.453125 111.816406 106.886719 123.941406 109.289062 133.464844 C 109.457031 132.546875 109.6875 131.632812 109.917969 130.660156 C 112.863281 118.792969 119.097656 108.925781 128.449219 101.40625 C 137.542969 94.054688 147.523438 90.683594 155.84375 89.222656 C 144.976562 86.707031 131.191406 81.015625 120.8125 68.261719 C 114.664062 60.710938 111.460938 52.789062 109.832031 45.871094 C 108.171875 53.363281 104.625 62.257812 97.332031 70.492188 C 86.609375 82.617188 72.96875 87.707031 62.445312 89.796875 Z M 62.445312 89.796875 " fill-opacity="1" fill-rule="nonzero"/></g></svg>