<svg xmlns="http://www.w3.org/2000/svg" xmlns:xlink="http://www.w3.org/1999/xlink" width="1080" zoomAndPan="magnify" viewBox="0 0 810 809.999993" height="1080" preserveAspectRatio="xMidYMid meet" version="1.0"><defs><clipPath id="0fe507e308"><path d="M 95 102 L 706 102 L 706 708.285156 L 95 708.285156 Z M 95 102 " clip-rule="nonzero"/></clipPath></defs><g clip-path="url(#0fe507e308)"><path fill="#c39aff" d="M 385.859375 708.304688 C 378.289062 708.304688 370.742188 708.035156 363.234375 707.496094 C 315.828125 704.082031 281.273438 693.359375 254.496094 673.753906 C 240.035156 663.167969 226.65625 652.855469 214.308594 642.265625 C 181.71875 616.90625 154.101562 584.363281 133.53125 546.855469 C 108.183594 500.625 94.9375 449.414062 95.222656 398.761719 C 95.570312 338.933594 114.164062 280.640625 147.59375 234.613281 C 167.078125 207.78125 192.117188 184.171875 222.023438 164.445312 C 249.949219 146.023438 281.3125 131.46875 315.246094 121.179688 C 336.101562 114.859375 357.523438 110.390625 378.828125 107.878906 C 402.835938 103.195312 426.136719 101.699219 448.285156 103.433594 C 472.886719 105.351562 497.59375 111.347656 521.722656 121.246094 C 544.761719 130.699219 566.78125 143.5 587.167969 159.285156 C 627.21875 190.300781 659.355469 232.316406 680.101562 280.777344 C 700.84375 329.242188 709.058594 381.492188 703.851562 431.882812 C 698.644531 482.273438 679.917969 531.738281 649.707031 574.941406 C 619.488281 618.140625 579.445312 652.699219 533.898438 674.871094 C 514.050781 684.53125 493 691.917969 471.207031 696.949219 C 443.34375 704.46875 414.476562 708.316406 385.859375 708.316406 Z M 219.445312 635.800781 C 226.757812 641.496094 234.359375 646.832031 242.207031 651.773438 C 309.953125 694.414062 395.703125 706.929688 473.398438 687.914062 C 524.851562 673.253906 571.867188 645.777344 608.25 607.808594 C 691.078125 521.390625 715.019531 384.613281 666.476562 275.203125 C 640.039062 215.617188 595.457031 167.910156 540.945312 140.855469 C 494.539062 117.832031 438.316406 109.394531 380.558594 115.984375 C 349.808594 121.992188 317.484375 133.390625 283.863281 150.117188 C 224.074219 179.859375 179.933594 216.53125 152.660156 259.117188 C 123.375 304.84375 109.746094 364.132812 114.285156 426.0625 C 118.109375 478.277344 135.070312 529.101562 163.324219 573.035156 C 178.730469 596.992188 197.367188 616.828125 219.445312 635.796875 Z M 281.199219 142.242188 C 228.421875 164.574219 184.160156 198.292969 154.265625 239.457031 C 121.847656 284.097656 103.808594 340.691406 103.472656 398.8125 C 103.332031 423.28125 106.46875 447.691406 112.527344 471.390625 C 109.332031 456.683594 107.167969 441.730469 106.0625 426.667969 C 103.808594 395.945312 105.84375 365.882812 112.109375 337.3125 C 118.78125 306.875 130.085938 279.066406 145.71875 254.667969 C 173.804688 210.8125 219.050781 173.152344 280.191406 142.734375 C 280.527344 142.570312 280.863281 142.402344 281.199219 142.234375 Z M 281.199219 142.242188 " fill-opacity="1" fill-rule="nonzero"/></g></svg>