<svg xmlns="http://www.w3.org/2000/svg" xmlns:xlink="http://www.w3.org/1999/xlink" width="1080" zoomAndPan="magnify" viewBox="0 0 810 809.999993" height="1080" preserveAspectRatio="xMidYMid meet" version="1.0"><defs><clipPath id="1da78f0a8e"><path d="M 95 102 L 706 102 L 706 708.300781 L 95 708.300781 Z M 95 102 " clip-rule="nonzero"/></clipPath><clipPath id="f9e2a1f7be"><path d="M 95 102 L 706 102 L 706 708.285156 L 95 708.285156 Z M 95 102 " clip-rule="nonzero"/></clipPath></defs><g clip-path="url(#1da78f0a8e)"><path fill="#ffffff" d="M 385.871094 708.316406 C 378.304688 708.316406 370.757812 708.046875 363.25 707.511719 C 315.84375 704.097656 281.289062 693.375 254.511719 673.769531 C 240.050781 663.183594 226.671875 652.871094 214.320312 642.28125 C 181.734375 616.917969 154.113281 584.375 133.546875 546.867188 C 108.195312 500.636719 94.949219 449.429688 95.238281 398.773438 C 95.582031 338.945312 114.175781 280.652344 147.605469 234.625 C 167.089844 207.792969 192.132812 184.1875 222.039062 164.460938 C 249.964844 146.035156 281.328125 131.480469 315.261719 121.191406 C 336.113281 114.871094 357.539062 110.402344 378.84375 107.890625 C 402.851562 103.207031 426.148438 101.714844 448.300781 103.445312 C 472.902344 105.363281 497.609375 111.359375 521.738281 121.257812 C 544.777344 130.710938 566.796875 143.511719 587.179688 159.300781 C 627.234375 190.316406 659.371094 232.328125 680.113281 280.789062 C 700.855469 329.257812 709.074219 381.503906 703.863281 431.894531 C 698.660156 482.285156 679.933594 531.753906 649.71875 574.953125 C 619.5 618.15625 579.460938 652.710938 533.910156 674.882812 C 514.0625 684.546875 493.011719 691.933594 471.21875 696.960938 C 443.359375 704.480469 414.492188 708.328125 385.871094 708.328125 Z M 219.460938 635.816406 C 226.769531 641.511719 234.371094 646.847656 242.21875 651.789062 C 309.96875 694.429688 395.714844 706.945312 473.414062 687.925781 C 524.863281 673.269531 571.878906 645.792969 608.265625 607.824219 C 691.089844 521.402344 715.03125 384.628906 666.488281 275.21875 C 640.050781 215.632812 595.46875 167.921875 540.957031 140.871094 C 494.550781 117.84375 438.328125 109.410156 380.574219 116 C 349.820312 122.007812 317.496094 133.40625 283.875 150.132812 C 224.085938 179.871094 179.945312 216.542969 152.671875 259.128906 C 123.390625 304.859375 109.757812 364.148438 114.296875 426.074219 C 118.125 478.289062 135.085938 529.113281 163.335938 573.046875 C 178.742188 597.007812 197.378906 616.84375 219.460938 635.808594 Z M 281.210938 142.253906 C 228.433594 164.585938 184.171875 198.304688 154.277344 239.46875 C 121.859375 284.109375 103.820312 340.707031 103.488281 398.824219 C 103.34375 423.292969 106.480469 447.703125 112.539062 471.402344 C 109.347656 456.695312 107.179688 441.746094 106.074219 426.679688 C 103.820312 395.960938 105.855469 365.894531 112.121094 337.324219 C 118.792969 306.886719 130.101562 279.082031 145.730469 254.683594 C 173.816406 210.828125 219.0625 173.167969 280.207031 142.75 C 280.539062 142.585938 280.875 142.414062 281.210938 142.25 Z M 281.210938 142.253906 " fill-opacity="1" fill-rule="nonzero"/></g><g clip-path="url(#f9e2a1f7be)"><path fill="#ffffff" d="M 385.859375 708.304688 C 378.289062 708.304688 370.742188 708.035156 363.234375 707.496094 C 315.828125 704.082031 281.273438 693.359375 254.496094 673.753906 C 240.035156 663.167969 226.65625 652.855469 214.308594 642.265625 C 181.71875 616.90625 154.101562 584.363281 133.53125 546.855469 C 108.183594 500.625 94.9375 449.414062 95.222656 398.761719 C 95.570312 338.933594 114.164062 280.640625 147.59375 234.613281 C 167.078125 207.78125 192.117188 184.171875 222.023438 164.445312 C 249.949219 146.023438 281.3125 131.46875 315.246094 121.179688 C 336.101562 114.859375 357.523438 110.390625 378.828125 107.878906 C 402.835938 103.195312 426.136719 101.699219 448.285156 103.433594 C 472.886719 105.351562 497.59375 111.347656 521.722656 121.246094 C 544.761719 130.699219 566.78125 143.5 587.167969 159.285156 C 627.21875 190.300781 659.355469 232.316406 680.101562 280.777344 C 700.84375 329.242188 709.058594 381.492188 703.851562 431.882812 C 698.644531 482.273438 679.917969 531.738281 649.707031 574.941406 C 619.488281 618.140625 579.445312 652.699219 533.898438 674.871094 C 514.050781 684.53125 493 691.917969 471.207031 696.949219 C 443.34375 704.46875 414.476562 708.316406 385.859375 708.316406 Z M 219.445312 635.800781 C 226.757812 641.496094 234.359375 646.832031 242.207031 651.773438 C 309.953125 694.414062 395.703125 706.929688 473.398438 687.914062 C 524.851562 673.253906 571.867188 645.777344 608.25 607.808594 C 691.078125 521.390625 715.019531 384.613281 666.476562 275.203125 C 640.039062 215.617188 595.457031 167.910156 540.945312 140.855469 C 494.539062 117.832031 438.316406 109.394531 380.558594 115.984375 C 349.808594 121.992188 317.484375 133.390625 283.863281 150.117188 C 224.074219 179.859375 179.933594 216.53125 152.660156 259.117188 C 123.375 304.84375 109.746094 364.132812 114.285156 426.0625 C 118.109375 478.277344 135.070312 529.101562 163.324219 573.035156 C 178.730469 596.992188 197.367188 616.828125 219.445312 635.796875 Z M 281.199219 142.242188 C 228.421875 164.574219 184.160156 198.292969 154.265625 239.457031 C 121.847656 284.097656 103.808594 340.691406 103.472656 398.8125 C 103.332031 423.28125 106.46875 447.691406 112.527344 471.390625 C 109.332031 456.683594 107.167969 441.730469 106.0625 426.667969 C 103.808594 395.945312 105.84375 365.882812 112.109375 337.3125 C 118.78125 306.875 130.085938 279.066406 145.71875 254.667969 C 173.804688 210.8125 219.050781 173.152344 280.191406 142.734375 C 280.527344 142.570312 280.863281 142.402344 281.199219 142.234375 Z M 281.199219 142.242188 " fill-opacity="1" fill-rule="nonzero"/></g></svg>