<svg xmlns="http://www.w3.org/2000/svg" xmlns:xlink="http://www.w3.org/1999/xlink" width="1080" zoomAndPan="magnify" viewBox="0 0 810 809.999993" height="1080" preserveAspectRatio="xMidYMid meet" version="1.0"><defs><clipPath id="4f73a27678"><path d="M 95.222656 7.851562 L 714.722656 7.851562 L 714.722656 802.101562 L 95.222656 802.101562 Z M 95.222656 7.851562 " clip-rule="nonzero"/></clipPath><clipPath id="18693d8e74"><path d="M 263.429688 191.308594 L 546.929688 191.308594 L 546.929688 618.808594 L 263.429688 618.808594 Z M 263.429688 191.308594 " clip-rule="nonzero"/></clipPath></defs><g clip-path="url(#4f73a27678)"><path fill="#ffdd52" d="M 126.597656 405.433594 C 117.632812 404.78125 109.101562 404.34375 100.355469 403.90625 C 97.730469 403.6875 95.980469 402.375 95.761719 399.53125 C 95.542969 396.46875 97.730469 395.8125 100.136719 395.8125 C 110.632812 395.15625 120.914062 395.15625 131.191406 393.625 C 141.25 392.3125 151.3125 389.910156 161.152344 387.066406 C 168.589844 385.097656 175.804688 382.253906 182.804688 379.191406 C 202.703125 370.445312 220.636719 358.417969 237.476562 344.417969 C 250.160156 333.703125 262.1875 322.113281 273.125 309.429688 C 282.308594 298.710938 291.054688 287.339844 299.585938 275.75 C 307.457031 264.816406 314.675781 253.660156 321.453125 242.070312 C 328.890625 229.386719 335.453125 216.265625 342.230469 203.144531 C 353.164062 182.148438 361.914062 160.0625 369.566406 137.535156 C 375.253906 120.476562 380.503906 103.417969 384.875 85.921875 C 389.03125 69.738281 392.53125 53.339844 395.59375 36.9375 C 397.125 29.5 397.125 21.847656 397.996094 14.191406 C 397.996094 13.316406 397.996094 12.660156 397.996094 11.785156 C 398.214844 9.816406 398.871094 7.851562 401.277344 7.851562 C 403.683594 7.851562 404.558594 9.597656 404.777344 11.566406 C 405.433594 17.035156 405.871094 22.285156 406.746094 27.75 C 410.027344 45.027344 413.085938 62.523438 417.023438 79.582031 C 419.867188 92.046875 423.148438 104.511719 426.867188 116.757812 C 430.582031 129.226562 434.957031 141.691406 439.550781 153.9375 C 445.453125 169.027344 451.359375 184.117188 458.359375 198.550781 C 466.230469 214.953125 474.976562 230.917969 484.164062 246.445312 C 492.910156 261.097656 502.535156 275.53125 513.03125 289.089844 C 523.746094 302.867188 535.554688 315.988281 547.804688 328.675781 C 560.488281 341.796875 574.703125 353.167969 589.792969 363.007812 C 602.039062 370.882812 614.941406 377.660156 628.28125 383.128906 C 641.40625 388.597656 654.964844 392.09375 668.742188 393.84375 C 680.988281 395.375 693.234375 394.71875 705.699219 394.9375 C 707.449219 394.9375 709.199219 394.5 710.511719 395.15625 C 712.042969 395.8125 713.136719 397.34375 714.449219 398.4375 C 713.355469 399.75 712.480469 401.9375 711.167969 402.15625 C 704.605469 403.46875 697.828125 404.78125 691.046875 405 C 677.050781 405.652344 663.492188 407.839844 649.933594 411.558594 C 636.59375 415.058594 624.128906 420.527344 611.878906 427.085938 C 597.007812 435.179688 583.011719 444.800781 569.890625 455.953125 C 557.644531 466.234375 546.273438 477.167969 535.992188 489.414062 C 525.058594 502.316406 514.125 515.65625 504.503906 529.871094 C 493.128906 546.929688 482.851562 564.863281 472.574219 582.796875 C 467.324219 592.199219 462.949219 602.261719 458.578125 612.101562 C 453.109375 624.566406 447.859375 637.25 443.050781 649.933594 C 439.550781 659.121094 436.707031 668.523438 433.863281 677.710938 C 431.238281 686.238281 428.394531 694.769531 426.210938 703.515625 C 422.929688 715.980469 420.085938 728.445312 417.460938 740.914062 C 415.273438 751.191406 413.085938 761.6875 411.339844 771.96875 C 409.808594 780.714844 408.496094 789.460938 406.964844 798.210938 C 406.746094 800.179688 406.308594 802.148438 403.683594 802.148438 C 401.058594 802.148438 400.839844 800.398438 400.402344 798.210938 C 398.871094 788.367188 397.5625 778.527344 395.8125 768.90625 C 394.71875 762.78125 393.40625 756.660156 392.09375 750.535156 C 389.6875 739.820312 387.28125 729.101562 384.65625 718.605469 C 381.597656 707.234375 378.097656 696.078125 374.597656 684.925781 C 371.535156 675.085938 368.253906 665.460938 364.757812 655.839844 C 359.726562 642.9375 354.476562 630.035156 349.011719 617.351562 C 343.761719 605.539062 338.074219 593.949219 332.171875 582.578125 C 326.265625 571.644531 320.144531 560.925781 313.582031 550.429688 C 306.800781 539.496094 299.585938 528.996094 292.148438 518.5 C 279.027344 500.347656 264.375 483.507812 247.972656 468.636719 C 238.570312 460.109375 228.730469 451.796875 218.667969 444.144531 C 211.015625 438.457031 202.703125 433.429688 194.394531 428.835938 C 185.644531 424.023438 176.679688 419.871094 167.496094 416.152344 C 156.121094 411.558594 144.53125 408.277344 132.503906 406.964844 C 130.316406 406.527344 128.566406 405.871094 126.597656 405.433594 Z M 126.597656 405.433594 " fill-opacity="1" fill-rule="nonzero"/></g><g clip-path="url(#18693d8e74)"><path fill="#fff185" d="M 404.996094 191.308594 C 404.996094 191.308594 417.539062 299.335938 460.511719 350.46875 C 495.246094 391.796875 546.476562 404.996094 546.476562 404.996094 C 546.476562 404.996094 494.917969 418.398438 460.242188 459.65625 C 411.117188 518.109375 404.996094 618.6875 404.996094 618.6875 C 404.996094 618.6875 392.457031 510.65625 349.480469 459.523438 C 314.75 418.199219 263.519531 404.996094 263.519531 404.996094 C 263.519531 404.996094 315.078125 391.59375 349.75 350.339844 C 398.878906 291.882812 404.996094 191.308594 404.996094 191.308594 Z M 404.996094 191.308594 " fill-opacity="1" fill-rule="nonzero"/></g></svg>